G04 #@! TF.GenerationSoftware,KiCad,Pcbnew,5.0.1-33cea8e~68~ubuntu18.04.1*
G04 #@! TF.CreationDate,2018-11-05T13:53:30-05:00*
G04 #@! TF.ProjectId,core-1,636F72652D312E6B696361645F706362,rev?*
G04 #@! TF.SameCoordinates,Original*
G04 #@! TF.FileFunction,Legend,Top*
G04 #@! TF.FilePolarity,Positive*
%FSLAX46Y46*%
G04 Gerber Fmt 4.6, Leading zero omitted, Abs format (unit mm)*
G04 Created by KiCad (PCBNEW 5.0.1-33cea8e~68~ubuntu18.04.1) date Mon 05 Nov 2018 01:53:30 PM EST*
%MOMM*%
%LPD*%
G01*
G04 APERTURE LIST*
%ADD10C,0.120000*%
%ADD11C,0.150000*%
G04 APERTURE END LIST*
D10*
G04 #@! TO.C,J1*
X130055000Y-91975000D02*
X130055000Y-33015000D01*
X130055000Y-33015000D02*
X139405000Y-33015000D01*
X139405000Y-33015000D02*
X139405000Y-91975000D01*
X139405000Y-91975000D02*
X130055000Y-91975000D01*
X139655000Y-92225000D02*
X139655000Y-89685000D01*
X139655000Y-92225000D02*
X137115000Y-92225000D01*
G04 #@! TO.C,MK1*
X154670000Y-102030000D02*
X157330000Y-102030000D01*
X154670000Y-89270000D02*
X154670000Y-102030000D01*
X157330000Y-89270000D02*
X157330000Y-102030000D01*
X154670000Y-89270000D02*
X157330000Y-89270000D01*
X154670000Y-88000000D02*
X154670000Y-86670000D01*
X154670000Y-86670000D02*
X156000000Y-86670000D01*
G04 #@! TO.C,U1*
X154670000Y-125570000D02*
X157330000Y-125570000D01*
X154670000Y-110270000D02*
X154670000Y-125570000D01*
X157330000Y-110270000D02*
X157330000Y-125570000D01*
X154670000Y-110270000D02*
X157330000Y-110270000D01*
X154670000Y-109000000D02*
X154670000Y-107670000D01*
X154670000Y-107670000D02*
X156000000Y-107670000D01*
G04 #@! TO.C,U2*
X154670000Y-60270000D02*
X157330000Y-60270000D01*
X154670000Y-60270000D02*
X154670000Y-80650000D01*
X154670000Y-80650000D02*
X157330000Y-80650000D01*
X157330000Y-60270000D02*
X157330000Y-80650000D01*
X157330000Y-57670000D02*
X157330000Y-59000000D01*
X156000000Y-57670000D02*
X157330000Y-57670000D01*
G04 #@! TO.C,U3*
X154670000Y-158650000D02*
X157330000Y-158650000D01*
X154670000Y-138270000D02*
X154670000Y-158650000D01*
X157330000Y-138270000D02*
X157330000Y-158650000D01*
X154670000Y-138270000D02*
X157330000Y-138270000D01*
X154670000Y-137000000D02*
X154670000Y-135670000D01*
X154670000Y-135670000D02*
X156000000Y-135670000D01*
G04 #@! TO.C,J2*
X137170000Y-177310000D02*
X139830000Y-177310000D01*
X139830000Y-177310000D02*
X139830000Y-174650000D01*
X139830000Y-174650000D02*
X137170000Y-174650000D01*
X137170000Y-174650000D02*
X137170000Y-177310000D01*
X138120000Y-174650000D02*
X138120000Y-168650000D01*
X138120000Y-168650000D02*
X138880000Y-168650000D01*
X138880000Y-168650000D02*
X138880000Y-174650000D01*
X138180000Y-174650000D02*
X138180000Y-168650000D01*
X138300000Y-174650000D02*
X138300000Y-168650000D01*
X138420000Y-174650000D02*
X138420000Y-168650000D01*
X138540000Y-174650000D02*
X138540000Y-168650000D01*
X138660000Y-174650000D02*
X138660000Y-168650000D01*
X138780000Y-174650000D02*
X138780000Y-168650000D01*
X138120000Y-177640000D02*
X138120000Y-177310000D01*
X138880000Y-177640000D02*
X138880000Y-177310000D01*
X138500000Y-180020000D02*
X137230000Y-180020000D01*
X137230000Y-180020000D02*
X137230000Y-178750000D01*
G04 #@! TO.C,J3*
X150230000Y-180020000D02*
X150230000Y-178750000D01*
X151500000Y-180020000D02*
X150230000Y-180020000D01*
X151880000Y-177640000D02*
X151880000Y-177310000D01*
X151120000Y-177640000D02*
X151120000Y-177310000D01*
X151780000Y-174650000D02*
X151780000Y-168650000D01*
X151660000Y-174650000D02*
X151660000Y-168650000D01*
X151540000Y-174650000D02*
X151540000Y-168650000D01*
X151420000Y-174650000D02*
X151420000Y-168650000D01*
X151300000Y-174650000D02*
X151300000Y-168650000D01*
X151180000Y-174650000D02*
X151180000Y-168650000D01*
X151880000Y-168650000D02*
X151880000Y-174650000D01*
X151120000Y-168650000D02*
X151880000Y-168650000D01*
X151120000Y-174650000D02*
X151120000Y-168650000D01*
X150170000Y-174650000D02*
X150170000Y-177310000D01*
X152830000Y-174650000D02*
X150170000Y-174650000D01*
X152830000Y-177310000D02*
X152830000Y-174650000D01*
X150170000Y-177310000D02*
X152830000Y-177310000D01*
G04 #@! TO.C,J4*
X142270000Y-163480000D02*
X142270000Y-164750000D01*
X141000000Y-163480000D02*
X142270000Y-163480000D01*
X140620000Y-165860000D02*
X140620000Y-166190000D01*
X141380000Y-165860000D02*
X141380000Y-166190000D01*
X140720000Y-168850000D02*
X140720000Y-174850000D01*
X140840000Y-168850000D02*
X140840000Y-174850000D01*
X140960000Y-168850000D02*
X140960000Y-174850000D01*
X141080000Y-168850000D02*
X141080000Y-174850000D01*
X141200000Y-168850000D02*
X141200000Y-174850000D01*
X141320000Y-168850000D02*
X141320000Y-174850000D01*
X140620000Y-174850000D02*
X140620000Y-168850000D01*
X141380000Y-174850000D02*
X140620000Y-174850000D01*
X141380000Y-168850000D02*
X141380000Y-174850000D01*
X142330000Y-168850000D02*
X142330000Y-166190000D01*
X139670000Y-168850000D02*
X142330000Y-168850000D01*
X139670000Y-166190000D02*
X139670000Y-168850000D01*
X142330000Y-166190000D02*
X139670000Y-166190000D01*
G04 #@! TO.C,J5*
X150330000Y-166190000D02*
X147670000Y-166190000D01*
X147670000Y-166190000D02*
X147670000Y-168850000D01*
X147670000Y-168850000D02*
X150330000Y-168850000D01*
X150330000Y-168850000D02*
X150330000Y-166190000D01*
X149380000Y-168850000D02*
X149380000Y-174850000D01*
X149380000Y-174850000D02*
X148620000Y-174850000D01*
X148620000Y-174850000D02*
X148620000Y-168850000D01*
X149320000Y-168850000D02*
X149320000Y-174850000D01*
X149200000Y-168850000D02*
X149200000Y-174850000D01*
X149080000Y-168850000D02*
X149080000Y-174850000D01*
X148960000Y-168850000D02*
X148960000Y-174850000D01*
X148840000Y-168850000D02*
X148840000Y-174850000D01*
X148720000Y-168850000D02*
X148720000Y-174850000D01*
X149380000Y-165860000D02*
X149380000Y-166190000D01*
X148620000Y-165860000D02*
X148620000Y-166190000D01*
X149000000Y-163480000D02*
X150270000Y-163480000D01*
X150270000Y-163480000D02*
X150270000Y-164750000D01*
G04 #@! TO.C,J6*
X147670000Y-155810000D02*
X152870000Y-155810000D01*
X152870000Y-155810000D02*
X152870000Y-153150000D01*
X152870000Y-153150000D02*
X147670000Y-153150000D01*
X147670000Y-153150000D02*
X147670000Y-155810000D01*
X148620000Y-153150000D02*
X148620000Y-147150000D01*
X148620000Y-147150000D02*
X149380000Y-147150000D01*
X149380000Y-147150000D02*
X149380000Y-153150000D01*
X148680000Y-153150000D02*
X148680000Y-147150000D01*
X148800000Y-153150000D02*
X148800000Y-147150000D01*
X148920000Y-153150000D02*
X148920000Y-147150000D01*
X149040000Y-153150000D02*
X149040000Y-147150000D01*
X149160000Y-153150000D02*
X149160000Y-147150000D01*
X149280000Y-153150000D02*
X149280000Y-147150000D01*
X148620000Y-156140000D02*
X148620000Y-155810000D01*
X149380000Y-156140000D02*
X149380000Y-155810000D01*
X150270000Y-155810000D02*
X150270000Y-153150000D01*
X151160000Y-153150000D02*
X151160000Y-147150000D01*
X151160000Y-147150000D02*
X151920000Y-147150000D01*
X151920000Y-147150000D02*
X151920000Y-153150000D01*
X151160000Y-156207071D02*
X151160000Y-155810000D01*
X151920000Y-156207071D02*
X151920000Y-155810000D01*
X149000000Y-158520000D02*
X147730000Y-158520000D01*
X147730000Y-158520000D02*
X147730000Y-157250000D01*
G04 #@! TO.C,J7*
X137230000Y-158520000D02*
X137230000Y-157250000D01*
X138500000Y-158520000D02*
X137230000Y-158520000D01*
X141420000Y-156207071D02*
X141420000Y-155810000D01*
X140660000Y-156207071D02*
X140660000Y-155810000D01*
X141420000Y-147150000D02*
X141420000Y-153150000D01*
X140660000Y-147150000D02*
X141420000Y-147150000D01*
X140660000Y-153150000D02*
X140660000Y-147150000D01*
X139770000Y-155810000D02*
X139770000Y-153150000D01*
X138880000Y-156140000D02*
X138880000Y-155810000D01*
X138120000Y-156140000D02*
X138120000Y-155810000D01*
X138780000Y-153150000D02*
X138780000Y-147150000D01*
X138660000Y-153150000D02*
X138660000Y-147150000D01*
X138540000Y-153150000D02*
X138540000Y-147150000D01*
X138420000Y-153150000D02*
X138420000Y-147150000D01*
X138300000Y-153150000D02*
X138300000Y-147150000D01*
X138180000Y-153150000D02*
X138180000Y-147150000D01*
X138880000Y-147150000D02*
X138880000Y-153150000D01*
X138120000Y-147150000D02*
X138880000Y-147150000D01*
X138120000Y-153150000D02*
X138120000Y-147150000D01*
X137170000Y-153150000D02*
X137170000Y-155810000D01*
X142370000Y-153150000D02*
X137170000Y-153150000D01*
X142370000Y-155810000D02*
X142370000Y-153150000D01*
X137170000Y-155810000D02*
X142370000Y-155810000D01*
G04 #@! TO.C,J1*
D11*
X136441666Y-31127380D02*
X136441666Y-31841666D01*
X136394047Y-31984523D01*
X136298809Y-32079761D01*
X136155952Y-32127380D01*
X136060714Y-32127380D01*
X137441666Y-32127380D02*
X136870238Y-32127380D01*
X137155952Y-32127380D02*
X137155952Y-31127380D01*
X137060714Y-31270238D01*
X136965476Y-31365476D01*
X136870238Y-31413095D01*
G04 #@! TO.C,MK1*
X154640476Y-85792380D02*
X154640476Y-84792380D01*
X154973809Y-85506666D01*
X155307142Y-84792380D01*
X155307142Y-85792380D01*
X155783333Y-85792380D02*
X155783333Y-84792380D01*
X156354761Y-85792380D02*
X155926190Y-85220952D01*
X156354761Y-84792380D02*
X155783333Y-85363809D01*
X157307142Y-85792380D02*
X156735714Y-85792380D01*
X157021428Y-85792380D02*
X157021428Y-84792380D01*
X156926190Y-84935238D01*
X156830952Y-85030476D01*
X156735714Y-85078095D01*
G04 #@! TO.C,U1*
X155218095Y-105542380D02*
X155218095Y-106351904D01*
X155265714Y-106447142D01*
X155313333Y-106494761D01*
X155408571Y-106542380D01*
X155599047Y-106542380D01*
X155694285Y-106494761D01*
X155741904Y-106447142D01*
X155789523Y-106351904D01*
X155789523Y-105542380D01*
X156789523Y-106542380D02*
X156218095Y-106542380D01*
X156503809Y-106542380D02*
X156503809Y-105542380D01*
X156408571Y-105685238D01*
X156313333Y-105780476D01*
X156218095Y-105828095D01*
G04 #@! TO.C,U2*
X155238095Y-55682380D02*
X155238095Y-56491904D01*
X155285714Y-56587142D01*
X155333333Y-56634761D01*
X155428571Y-56682380D01*
X155619047Y-56682380D01*
X155714285Y-56634761D01*
X155761904Y-56587142D01*
X155809523Y-56491904D01*
X155809523Y-55682380D01*
X156238095Y-55777619D02*
X156285714Y-55730000D01*
X156380952Y-55682380D01*
X156619047Y-55682380D01*
X156714285Y-55730000D01*
X156761904Y-55777619D01*
X156809523Y-55872857D01*
X156809523Y-55968095D01*
X156761904Y-56110952D01*
X156190476Y-56682380D01*
X156809523Y-56682380D01*
G04 #@! TO.C,U3*
X155268095Y-133622380D02*
X155268095Y-134431904D01*
X155315714Y-134527142D01*
X155363333Y-134574761D01*
X155458571Y-134622380D01*
X155649047Y-134622380D01*
X155744285Y-134574761D01*
X155791904Y-134527142D01*
X155839523Y-134431904D01*
X155839523Y-133622380D01*
X156220476Y-133622380D02*
X156839523Y-133622380D01*
X156506190Y-134003333D01*
X156649047Y-134003333D01*
X156744285Y-134050952D01*
X156791904Y-134098571D01*
X156839523Y-134193809D01*
X156839523Y-134431904D01*
X156791904Y-134527142D01*
X156744285Y-134574761D01*
X156649047Y-134622380D01*
X156363333Y-134622380D01*
X156268095Y-134574761D01*
X156220476Y-134527142D01*
G04 #@! TO.C,J2*
X138166666Y-180952380D02*
X138166666Y-181666666D01*
X138119047Y-181809523D01*
X138023809Y-181904761D01*
X137880952Y-181952380D01*
X137785714Y-181952380D01*
X138595238Y-181047619D02*
X138642857Y-181000000D01*
X138738095Y-180952380D01*
X138976190Y-180952380D01*
X139071428Y-181000000D01*
X139119047Y-181047619D01*
X139166666Y-181142857D01*
X139166666Y-181238095D01*
X139119047Y-181380952D01*
X138547619Y-181952380D01*
X139166666Y-181952380D01*
G04 #@! TO.C,J3*
X151166666Y-180952380D02*
X151166666Y-181666666D01*
X151119047Y-181809523D01*
X151023809Y-181904761D01*
X150880952Y-181952380D01*
X150785714Y-181952380D01*
X151547619Y-180952380D02*
X152166666Y-180952380D01*
X151833333Y-181333333D01*
X151976190Y-181333333D01*
X152071428Y-181380952D01*
X152119047Y-181428571D01*
X152166666Y-181523809D01*
X152166666Y-181761904D01*
X152119047Y-181857142D01*
X152071428Y-181904761D01*
X151976190Y-181952380D01*
X151690476Y-181952380D01*
X151595238Y-181904761D01*
X151547619Y-181857142D01*
G04 #@! TO.C,J4*
X140666666Y-161702380D02*
X140666666Y-162416666D01*
X140619047Y-162559523D01*
X140523809Y-162654761D01*
X140380952Y-162702380D01*
X140285714Y-162702380D01*
X141571428Y-162035714D02*
X141571428Y-162702380D01*
X141333333Y-161654761D02*
X141095238Y-162369047D01*
X141714285Y-162369047D01*
G04 #@! TO.C,J5*
X148416666Y-161702380D02*
X148416666Y-162416666D01*
X148369047Y-162559523D01*
X148273809Y-162654761D01*
X148130952Y-162702380D01*
X148035714Y-162702380D01*
X149369047Y-161702380D02*
X148892857Y-161702380D01*
X148845238Y-162178571D01*
X148892857Y-162130952D01*
X148988095Y-162083333D01*
X149226190Y-162083333D01*
X149321428Y-162130952D01*
X149369047Y-162178571D01*
X149416666Y-162273809D01*
X149416666Y-162511904D01*
X149369047Y-162607142D01*
X149321428Y-162654761D01*
X149226190Y-162702380D01*
X148988095Y-162702380D01*
X148892857Y-162654761D01*
X148845238Y-162607142D01*
G04 #@! TO.C,J6*
X150166666Y-145202380D02*
X150166666Y-145916666D01*
X150119047Y-146059523D01*
X150023809Y-146154761D01*
X149880952Y-146202380D01*
X149785714Y-146202380D01*
X151071428Y-145202380D02*
X150880952Y-145202380D01*
X150785714Y-145250000D01*
X150738095Y-145297619D01*
X150642857Y-145440476D01*
X150595238Y-145630952D01*
X150595238Y-146011904D01*
X150642857Y-146107142D01*
X150690476Y-146154761D01*
X150785714Y-146202380D01*
X150976190Y-146202380D01*
X151071428Y-146154761D01*
X151119047Y-146107142D01*
X151166666Y-146011904D01*
X151166666Y-145773809D01*
X151119047Y-145678571D01*
X151071428Y-145630952D01*
X150976190Y-145583333D01*
X150785714Y-145583333D01*
X150690476Y-145630952D01*
X150642857Y-145678571D01*
X150595238Y-145773809D01*
G04 #@! TO.C,J7*
X139166666Y-145202380D02*
X139166666Y-145916666D01*
X139119047Y-146059523D01*
X139023809Y-146154761D01*
X138880952Y-146202380D01*
X138785714Y-146202380D01*
X139547619Y-145202380D02*
X140214285Y-145202380D01*
X139785714Y-146202380D01*
G04 #@! TD*
M02*
