G04 #@! TF.GenerationSoftware,KiCad,Pcbnew,5.0.1-33cea8e~68~ubuntu18.04.1*
G04 #@! TF.CreationDate,2018-11-05T13:53:30-05:00*
G04 #@! TF.ProjectId,core-1,636F72652D312E6B696361645F706362,rev?*
G04 #@! TF.SameCoordinates,Original*
G04 #@! TF.FileFunction,Soldermask,Top*
G04 #@! TF.FilePolarity,Negative*
%FSLAX46Y46*%
G04 Gerber Fmt 4.6, Leading zero omitted, Abs format (unit mm)*
G04 Created by KiCad (PCBNEW 5.0.1-33cea8e~68~ubuntu18.04.1) date Mon 05 Nov 2018 01:53:30 PM EST*
%MOMM*%
%LPD*%
G01*
G04 APERTURE LIST*
%ADD10C,0.100000*%
G04 APERTURE END LIST*
D10*
G36*
X152401000Y-179651000D02*
X150599000Y-179651000D01*
X150599000Y-177849000D01*
X152401000Y-177849000D01*
X152401000Y-179651000D01*
X152401000Y-179651000D01*
G37*
G36*
X139401000Y-179651000D02*
X137599000Y-179651000D01*
X137599000Y-177849000D01*
X139401000Y-177849000D01*
X139401000Y-179651000D01*
X139401000Y-179651000D01*
G37*
G36*
X141901000Y-165651000D02*
X140099000Y-165651000D01*
X140099000Y-163849000D01*
X141901000Y-163849000D01*
X141901000Y-165651000D01*
X141901000Y-165651000D01*
G37*
G36*
X149901000Y-165651000D02*
X148099000Y-165651000D01*
X148099000Y-163849000D01*
X149901000Y-163849000D01*
X149901000Y-165651000D01*
X149901000Y-165651000D01*
G37*
G36*
X156110443Y-156425519D02*
X156176627Y-156432037D01*
X156289853Y-156466384D01*
X156346467Y-156483557D01*
X156485087Y-156557652D01*
X156502991Y-156567222D01*
X156538729Y-156596552D01*
X156640186Y-156679814D01*
X156695332Y-156747011D01*
X156752778Y-156817009D01*
X156752779Y-156817011D01*
X156836443Y-156973533D01*
X156836443Y-156973534D01*
X156887963Y-157143373D01*
X156905359Y-157320000D01*
X156887963Y-157496627D01*
X156857677Y-157596466D01*
X156836443Y-157666467D01*
X156790195Y-157752989D01*
X156752778Y-157822991D01*
X156723448Y-157858729D01*
X156640186Y-157960186D01*
X156538729Y-158043448D01*
X156502991Y-158072778D01*
X156502989Y-158072779D01*
X156346467Y-158156443D01*
X156289853Y-158173616D01*
X156176627Y-158207963D01*
X156110442Y-158214482D01*
X156044260Y-158221000D01*
X155955740Y-158221000D01*
X155889558Y-158214482D01*
X155823373Y-158207963D01*
X155710147Y-158173616D01*
X155653533Y-158156443D01*
X155497011Y-158072779D01*
X155497009Y-158072778D01*
X155461271Y-158043448D01*
X155359814Y-157960186D01*
X155276552Y-157858729D01*
X155247222Y-157822991D01*
X155209805Y-157752989D01*
X155163557Y-157666467D01*
X155142323Y-157596466D01*
X155112037Y-157496627D01*
X155094641Y-157320000D01*
X155112037Y-157143373D01*
X155163557Y-156973534D01*
X155163557Y-156973533D01*
X155247221Y-156817011D01*
X155247222Y-156817009D01*
X155304668Y-156747011D01*
X155359814Y-156679814D01*
X155461271Y-156596552D01*
X155497009Y-156567222D01*
X155514913Y-156557652D01*
X155653533Y-156483557D01*
X155710147Y-156466384D01*
X155823373Y-156432037D01*
X155889557Y-156425519D01*
X155955740Y-156419000D01*
X156044260Y-156419000D01*
X156110443Y-156425519D01*
X156110443Y-156425519D01*
G37*
G36*
X139401000Y-158151000D02*
X137599000Y-158151000D01*
X137599000Y-156349000D01*
X139401000Y-156349000D01*
X139401000Y-158151000D01*
X139401000Y-158151000D01*
G37*
G36*
X141150443Y-156355519D02*
X141216627Y-156362037D01*
X141329853Y-156396384D01*
X141386467Y-156413557D01*
X141517426Y-156483557D01*
X141542991Y-156497222D01*
X141578729Y-156526552D01*
X141680186Y-156609814D01*
X141737633Y-156679815D01*
X141792778Y-156747009D01*
X141792779Y-156747011D01*
X141876443Y-156903533D01*
X141876443Y-156903534D01*
X141927963Y-157073373D01*
X141945359Y-157250000D01*
X141927963Y-157426627D01*
X141906729Y-157496625D01*
X141876443Y-157596467D01*
X141802348Y-157735087D01*
X141792778Y-157752991D01*
X141763448Y-157788729D01*
X141680186Y-157890186D01*
X141594889Y-157960186D01*
X141542991Y-158002778D01*
X141542989Y-158002779D01*
X141386467Y-158086443D01*
X141329853Y-158103616D01*
X141216627Y-158137963D01*
X141150443Y-158144481D01*
X141084260Y-158151000D01*
X140995740Y-158151000D01*
X140929557Y-158144481D01*
X140863373Y-158137963D01*
X140750147Y-158103616D01*
X140693533Y-158086443D01*
X140537011Y-158002779D01*
X140537009Y-158002778D01*
X140485111Y-157960186D01*
X140399814Y-157890186D01*
X140316552Y-157788729D01*
X140287222Y-157752991D01*
X140277652Y-157735087D01*
X140203557Y-157596467D01*
X140173271Y-157496625D01*
X140152037Y-157426627D01*
X140134641Y-157250000D01*
X140152037Y-157073373D01*
X140203557Y-156903534D01*
X140203557Y-156903533D01*
X140287221Y-156747011D01*
X140287222Y-156747009D01*
X140342367Y-156679815D01*
X140399814Y-156609814D01*
X140501271Y-156526552D01*
X140537009Y-156497222D01*
X140562574Y-156483557D01*
X140693533Y-156413557D01*
X140750147Y-156396384D01*
X140863373Y-156362037D01*
X140929557Y-156355519D01*
X140995740Y-156349000D01*
X141084260Y-156349000D01*
X141150443Y-156355519D01*
X141150443Y-156355519D01*
G37*
G36*
X151650443Y-156355519D02*
X151716627Y-156362037D01*
X151829853Y-156396384D01*
X151886467Y-156413557D01*
X152017426Y-156483557D01*
X152042991Y-156497222D01*
X152078729Y-156526552D01*
X152180186Y-156609814D01*
X152237633Y-156679815D01*
X152292778Y-156747009D01*
X152292779Y-156747011D01*
X152376443Y-156903533D01*
X152376443Y-156903534D01*
X152427963Y-157073373D01*
X152445359Y-157250000D01*
X152427963Y-157426627D01*
X152406729Y-157496625D01*
X152376443Y-157596467D01*
X152302348Y-157735087D01*
X152292778Y-157752991D01*
X152263448Y-157788729D01*
X152180186Y-157890186D01*
X152094889Y-157960186D01*
X152042991Y-158002778D01*
X152042989Y-158002779D01*
X151886467Y-158086443D01*
X151829853Y-158103616D01*
X151716627Y-158137963D01*
X151650443Y-158144481D01*
X151584260Y-158151000D01*
X151495740Y-158151000D01*
X151429557Y-158144481D01*
X151363373Y-158137963D01*
X151250147Y-158103616D01*
X151193533Y-158086443D01*
X151037011Y-158002779D01*
X151037009Y-158002778D01*
X150985111Y-157960186D01*
X150899814Y-157890186D01*
X150816552Y-157788729D01*
X150787222Y-157752991D01*
X150777652Y-157735087D01*
X150703557Y-157596467D01*
X150673271Y-157496625D01*
X150652037Y-157426627D01*
X150634641Y-157250000D01*
X150652037Y-157073373D01*
X150703557Y-156903534D01*
X150703557Y-156903533D01*
X150787221Y-156747011D01*
X150787222Y-156747009D01*
X150842367Y-156679815D01*
X150899814Y-156609814D01*
X151001271Y-156526552D01*
X151037009Y-156497222D01*
X151062574Y-156483557D01*
X151193533Y-156413557D01*
X151250147Y-156396384D01*
X151363373Y-156362037D01*
X151429557Y-156355519D01*
X151495740Y-156349000D01*
X151584260Y-156349000D01*
X151650443Y-156355519D01*
X151650443Y-156355519D01*
G37*
G36*
X149901000Y-158151000D02*
X148099000Y-158151000D01*
X148099000Y-156349000D01*
X149901000Y-156349000D01*
X149901000Y-158151000D01*
X149901000Y-158151000D01*
G37*
G36*
X156110442Y-153885518D02*
X156176627Y-153892037D01*
X156289853Y-153926384D01*
X156346467Y-153943557D01*
X156485087Y-154017652D01*
X156502991Y-154027222D01*
X156538729Y-154056552D01*
X156640186Y-154139814D01*
X156723448Y-154241271D01*
X156752778Y-154277009D01*
X156752779Y-154277011D01*
X156836443Y-154433533D01*
X156836443Y-154433534D01*
X156887963Y-154603373D01*
X156905359Y-154780000D01*
X156887963Y-154956627D01*
X156853616Y-155069853D01*
X156836443Y-155126467D01*
X156762348Y-155265087D01*
X156752778Y-155282991D01*
X156723448Y-155318729D01*
X156640186Y-155420186D01*
X156538729Y-155503448D01*
X156502991Y-155532778D01*
X156502989Y-155532779D01*
X156346467Y-155616443D01*
X156289853Y-155633616D01*
X156176627Y-155667963D01*
X156110443Y-155674481D01*
X156044260Y-155681000D01*
X155955740Y-155681000D01*
X155889557Y-155674481D01*
X155823373Y-155667963D01*
X155710147Y-155633616D01*
X155653533Y-155616443D01*
X155497011Y-155532779D01*
X155497009Y-155532778D01*
X155461271Y-155503448D01*
X155359814Y-155420186D01*
X155276552Y-155318729D01*
X155247222Y-155282991D01*
X155237652Y-155265087D01*
X155163557Y-155126467D01*
X155146384Y-155069853D01*
X155112037Y-154956627D01*
X155094641Y-154780000D01*
X155112037Y-154603373D01*
X155163557Y-154433534D01*
X155163557Y-154433533D01*
X155247221Y-154277011D01*
X155247222Y-154277009D01*
X155276552Y-154241271D01*
X155359814Y-154139814D01*
X155461271Y-154056552D01*
X155497009Y-154027222D01*
X155514913Y-154017652D01*
X155653533Y-153943557D01*
X155710147Y-153926384D01*
X155823373Y-153892037D01*
X155889558Y-153885518D01*
X155955740Y-153879000D01*
X156044260Y-153879000D01*
X156110442Y-153885518D01*
X156110442Y-153885518D01*
G37*
G36*
X156110442Y-151345518D02*
X156176627Y-151352037D01*
X156289853Y-151386384D01*
X156346467Y-151403557D01*
X156485087Y-151477652D01*
X156502991Y-151487222D01*
X156538729Y-151516552D01*
X156640186Y-151599814D01*
X156723448Y-151701271D01*
X156752778Y-151737009D01*
X156752779Y-151737011D01*
X156836443Y-151893533D01*
X156836443Y-151893534D01*
X156887963Y-152063373D01*
X156905359Y-152240000D01*
X156887963Y-152416627D01*
X156853616Y-152529853D01*
X156836443Y-152586467D01*
X156762348Y-152725087D01*
X156752778Y-152742991D01*
X156723448Y-152778729D01*
X156640186Y-152880186D01*
X156538729Y-152963448D01*
X156502991Y-152992778D01*
X156502989Y-152992779D01*
X156346467Y-153076443D01*
X156289853Y-153093616D01*
X156176627Y-153127963D01*
X156110443Y-153134481D01*
X156044260Y-153141000D01*
X155955740Y-153141000D01*
X155889557Y-153134481D01*
X155823373Y-153127963D01*
X155710147Y-153093616D01*
X155653533Y-153076443D01*
X155497011Y-152992779D01*
X155497009Y-152992778D01*
X155461271Y-152963448D01*
X155359814Y-152880186D01*
X155276552Y-152778729D01*
X155247222Y-152742991D01*
X155237652Y-152725087D01*
X155163557Y-152586467D01*
X155146384Y-152529853D01*
X155112037Y-152416627D01*
X155094641Y-152240000D01*
X155112037Y-152063373D01*
X155163557Y-151893534D01*
X155163557Y-151893533D01*
X155247221Y-151737011D01*
X155247222Y-151737009D01*
X155276552Y-151701271D01*
X155359814Y-151599814D01*
X155461271Y-151516552D01*
X155497009Y-151487222D01*
X155514913Y-151477652D01*
X155653533Y-151403557D01*
X155710147Y-151386384D01*
X155823373Y-151352037D01*
X155889558Y-151345518D01*
X155955740Y-151339000D01*
X156044260Y-151339000D01*
X156110442Y-151345518D01*
X156110442Y-151345518D01*
G37*
G36*
X156110442Y-148805518D02*
X156176627Y-148812037D01*
X156289853Y-148846384D01*
X156346467Y-148863557D01*
X156485087Y-148937652D01*
X156502991Y-148947222D01*
X156538729Y-148976552D01*
X156640186Y-149059814D01*
X156723448Y-149161271D01*
X156752778Y-149197009D01*
X156752779Y-149197011D01*
X156836443Y-149353533D01*
X156836443Y-149353534D01*
X156887963Y-149523373D01*
X156905359Y-149700000D01*
X156887963Y-149876627D01*
X156853616Y-149989853D01*
X156836443Y-150046467D01*
X156762348Y-150185087D01*
X156752778Y-150202991D01*
X156723448Y-150238729D01*
X156640186Y-150340186D01*
X156538729Y-150423448D01*
X156502991Y-150452778D01*
X156502989Y-150452779D01*
X156346467Y-150536443D01*
X156289853Y-150553616D01*
X156176627Y-150587963D01*
X156110442Y-150594482D01*
X156044260Y-150601000D01*
X155955740Y-150601000D01*
X155889558Y-150594482D01*
X155823373Y-150587963D01*
X155710147Y-150553616D01*
X155653533Y-150536443D01*
X155497011Y-150452779D01*
X155497009Y-150452778D01*
X155461271Y-150423448D01*
X155359814Y-150340186D01*
X155276552Y-150238729D01*
X155247222Y-150202991D01*
X155237652Y-150185087D01*
X155163557Y-150046467D01*
X155146384Y-149989853D01*
X155112037Y-149876627D01*
X155094641Y-149700000D01*
X155112037Y-149523373D01*
X155163557Y-149353534D01*
X155163557Y-149353533D01*
X155247221Y-149197011D01*
X155247222Y-149197009D01*
X155276552Y-149161271D01*
X155359814Y-149059814D01*
X155461271Y-148976552D01*
X155497009Y-148947222D01*
X155514913Y-148937652D01*
X155653533Y-148863557D01*
X155710147Y-148846384D01*
X155823373Y-148812037D01*
X155889558Y-148805518D01*
X155955740Y-148799000D01*
X156044260Y-148799000D01*
X156110442Y-148805518D01*
X156110442Y-148805518D01*
G37*
G36*
X156110443Y-146265519D02*
X156176627Y-146272037D01*
X156289853Y-146306384D01*
X156346467Y-146323557D01*
X156485087Y-146397652D01*
X156502991Y-146407222D01*
X156538729Y-146436552D01*
X156640186Y-146519814D01*
X156723448Y-146621271D01*
X156752778Y-146657009D01*
X156752779Y-146657011D01*
X156836443Y-146813533D01*
X156836443Y-146813534D01*
X156887963Y-146983373D01*
X156905359Y-147160000D01*
X156887963Y-147336627D01*
X156853616Y-147449853D01*
X156836443Y-147506467D01*
X156762348Y-147645087D01*
X156752778Y-147662991D01*
X156723448Y-147698729D01*
X156640186Y-147800186D01*
X156538729Y-147883448D01*
X156502991Y-147912778D01*
X156502989Y-147912779D01*
X156346467Y-147996443D01*
X156289853Y-148013616D01*
X156176627Y-148047963D01*
X156110442Y-148054482D01*
X156044260Y-148061000D01*
X155955740Y-148061000D01*
X155889558Y-148054482D01*
X155823373Y-148047963D01*
X155710147Y-148013616D01*
X155653533Y-147996443D01*
X155497011Y-147912779D01*
X155497009Y-147912778D01*
X155461271Y-147883448D01*
X155359814Y-147800186D01*
X155276552Y-147698729D01*
X155247222Y-147662991D01*
X155237652Y-147645087D01*
X155163557Y-147506467D01*
X155146384Y-147449853D01*
X155112037Y-147336627D01*
X155094641Y-147160000D01*
X155112037Y-146983373D01*
X155163557Y-146813534D01*
X155163557Y-146813533D01*
X155247221Y-146657011D01*
X155247222Y-146657009D01*
X155276552Y-146621271D01*
X155359814Y-146519814D01*
X155461271Y-146436552D01*
X155497009Y-146407222D01*
X155514913Y-146397652D01*
X155653533Y-146323557D01*
X155710147Y-146306384D01*
X155823373Y-146272037D01*
X155889557Y-146265519D01*
X155955740Y-146259000D01*
X156044260Y-146259000D01*
X156110443Y-146265519D01*
X156110443Y-146265519D01*
G37*
G36*
X156110443Y-143725519D02*
X156176627Y-143732037D01*
X156289853Y-143766384D01*
X156346467Y-143783557D01*
X156485087Y-143857652D01*
X156502991Y-143867222D01*
X156538729Y-143896552D01*
X156640186Y-143979814D01*
X156723448Y-144081271D01*
X156752778Y-144117009D01*
X156752779Y-144117011D01*
X156836443Y-144273533D01*
X156836443Y-144273534D01*
X156887963Y-144443373D01*
X156905359Y-144620000D01*
X156887963Y-144796627D01*
X156853616Y-144909853D01*
X156836443Y-144966467D01*
X156762348Y-145105087D01*
X156752778Y-145122991D01*
X156723448Y-145158729D01*
X156640186Y-145260186D01*
X156538729Y-145343448D01*
X156502991Y-145372778D01*
X156502989Y-145372779D01*
X156346467Y-145456443D01*
X156289853Y-145473616D01*
X156176627Y-145507963D01*
X156110443Y-145514481D01*
X156044260Y-145521000D01*
X155955740Y-145521000D01*
X155889557Y-145514481D01*
X155823373Y-145507963D01*
X155710147Y-145473616D01*
X155653533Y-145456443D01*
X155497011Y-145372779D01*
X155497009Y-145372778D01*
X155461271Y-145343448D01*
X155359814Y-145260186D01*
X155276552Y-145158729D01*
X155247222Y-145122991D01*
X155237652Y-145105087D01*
X155163557Y-144966467D01*
X155146384Y-144909853D01*
X155112037Y-144796627D01*
X155094641Y-144620000D01*
X155112037Y-144443373D01*
X155163557Y-144273534D01*
X155163557Y-144273533D01*
X155247221Y-144117011D01*
X155247222Y-144117009D01*
X155276552Y-144081271D01*
X155359814Y-143979814D01*
X155461271Y-143896552D01*
X155497009Y-143867222D01*
X155514913Y-143857652D01*
X155653533Y-143783557D01*
X155710147Y-143766384D01*
X155823373Y-143732037D01*
X155889557Y-143725519D01*
X155955740Y-143719000D01*
X156044260Y-143719000D01*
X156110443Y-143725519D01*
X156110443Y-143725519D01*
G37*
G36*
X156110442Y-141185518D02*
X156176627Y-141192037D01*
X156289853Y-141226384D01*
X156346467Y-141243557D01*
X156485087Y-141317652D01*
X156502991Y-141327222D01*
X156538729Y-141356552D01*
X156640186Y-141439814D01*
X156723448Y-141541271D01*
X156752778Y-141577009D01*
X156752779Y-141577011D01*
X156836443Y-141733533D01*
X156836443Y-141733534D01*
X156887963Y-141903373D01*
X156905359Y-142080000D01*
X156887963Y-142256627D01*
X156853616Y-142369853D01*
X156836443Y-142426467D01*
X156762348Y-142565087D01*
X156752778Y-142582991D01*
X156723448Y-142618729D01*
X156640186Y-142720186D01*
X156538729Y-142803448D01*
X156502991Y-142832778D01*
X156502989Y-142832779D01*
X156346467Y-142916443D01*
X156289853Y-142933616D01*
X156176627Y-142967963D01*
X156110442Y-142974482D01*
X156044260Y-142981000D01*
X155955740Y-142981000D01*
X155889558Y-142974482D01*
X155823373Y-142967963D01*
X155710147Y-142933616D01*
X155653533Y-142916443D01*
X155497011Y-142832779D01*
X155497009Y-142832778D01*
X155461271Y-142803448D01*
X155359814Y-142720186D01*
X155276552Y-142618729D01*
X155247222Y-142582991D01*
X155237652Y-142565087D01*
X155163557Y-142426467D01*
X155146384Y-142369853D01*
X155112037Y-142256627D01*
X155094641Y-142080000D01*
X155112037Y-141903373D01*
X155163557Y-141733534D01*
X155163557Y-141733533D01*
X155247221Y-141577011D01*
X155247222Y-141577009D01*
X155276552Y-141541271D01*
X155359814Y-141439814D01*
X155461271Y-141356552D01*
X155497009Y-141327222D01*
X155514913Y-141317652D01*
X155653533Y-141243557D01*
X155710147Y-141226384D01*
X155823373Y-141192037D01*
X155889558Y-141185518D01*
X155955740Y-141179000D01*
X156044260Y-141179000D01*
X156110442Y-141185518D01*
X156110442Y-141185518D01*
G37*
G36*
X156110443Y-138645519D02*
X156176627Y-138652037D01*
X156289853Y-138686384D01*
X156346467Y-138703557D01*
X156485087Y-138777652D01*
X156502991Y-138787222D01*
X156538729Y-138816552D01*
X156640186Y-138899814D01*
X156723448Y-139001271D01*
X156752778Y-139037009D01*
X156752779Y-139037011D01*
X156836443Y-139193533D01*
X156836443Y-139193534D01*
X156887963Y-139363373D01*
X156905359Y-139540000D01*
X156887963Y-139716627D01*
X156853616Y-139829853D01*
X156836443Y-139886467D01*
X156762348Y-140025087D01*
X156752778Y-140042991D01*
X156723448Y-140078729D01*
X156640186Y-140180186D01*
X156538729Y-140263448D01*
X156502991Y-140292778D01*
X156502989Y-140292779D01*
X156346467Y-140376443D01*
X156289853Y-140393616D01*
X156176627Y-140427963D01*
X156110442Y-140434482D01*
X156044260Y-140441000D01*
X155955740Y-140441000D01*
X155889558Y-140434482D01*
X155823373Y-140427963D01*
X155710147Y-140393616D01*
X155653533Y-140376443D01*
X155497011Y-140292779D01*
X155497009Y-140292778D01*
X155461271Y-140263448D01*
X155359814Y-140180186D01*
X155276552Y-140078729D01*
X155247222Y-140042991D01*
X155237652Y-140025087D01*
X155163557Y-139886467D01*
X155146384Y-139829853D01*
X155112037Y-139716627D01*
X155094641Y-139540000D01*
X155112037Y-139363373D01*
X155163557Y-139193534D01*
X155163557Y-139193533D01*
X155247221Y-139037011D01*
X155247222Y-139037009D01*
X155276552Y-139001271D01*
X155359814Y-138899814D01*
X155461271Y-138816552D01*
X155497009Y-138787222D01*
X155514913Y-138777652D01*
X155653533Y-138703557D01*
X155710147Y-138686384D01*
X155823373Y-138652037D01*
X155889557Y-138645519D01*
X155955740Y-138639000D01*
X156044260Y-138639000D01*
X156110443Y-138645519D01*
X156110443Y-138645519D01*
G37*
G36*
X156901000Y-137901000D02*
X155099000Y-137901000D01*
X155099000Y-136099000D01*
X156901000Y-136099000D01*
X156901000Y-137901000D01*
X156901000Y-137901000D01*
G37*
G36*
X156110443Y-123345519D02*
X156176627Y-123352037D01*
X156289853Y-123386384D01*
X156346467Y-123403557D01*
X156485087Y-123477652D01*
X156502991Y-123487222D01*
X156538729Y-123516552D01*
X156640186Y-123599814D01*
X156723448Y-123701271D01*
X156752778Y-123737009D01*
X156752779Y-123737011D01*
X156836443Y-123893533D01*
X156836443Y-123893534D01*
X156887963Y-124063373D01*
X156905359Y-124240000D01*
X156887963Y-124416627D01*
X156853616Y-124529853D01*
X156836443Y-124586467D01*
X156762348Y-124725087D01*
X156752778Y-124742991D01*
X156723448Y-124778729D01*
X156640186Y-124880186D01*
X156538729Y-124963448D01*
X156502991Y-124992778D01*
X156502989Y-124992779D01*
X156346467Y-125076443D01*
X156289853Y-125093616D01*
X156176627Y-125127963D01*
X156110442Y-125134482D01*
X156044260Y-125141000D01*
X155955740Y-125141000D01*
X155889558Y-125134482D01*
X155823373Y-125127963D01*
X155710147Y-125093616D01*
X155653533Y-125076443D01*
X155497011Y-124992779D01*
X155497009Y-124992778D01*
X155461271Y-124963448D01*
X155359814Y-124880186D01*
X155276552Y-124778729D01*
X155247222Y-124742991D01*
X155237652Y-124725087D01*
X155163557Y-124586467D01*
X155146384Y-124529853D01*
X155112037Y-124416627D01*
X155094641Y-124240000D01*
X155112037Y-124063373D01*
X155163557Y-123893534D01*
X155163557Y-123893533D01*
X155247221Y-123737011D01*
X155247222Y-123737009D01*
X155276552Y-123701271D01*
X155359814Y-123599814D01*
X155461271Y-123516552D01*
X155497009Y-123487222D01*
X155514913Y-123477652D01*
X155653533Y-123403557D01*
X155710147Y-123386384D01*
X155823373Y-123352037D01*
X155889557Y-123345519D01*
X155955740Y-123339000D01*
X156044260Y-123339000D01*
X156110443Y-123345519D01*
X156110443Y-123345519D01*
G37*
G36*
X156110443Y-120805519D02*
X156176627Y-120812037D01*
X156289853Y-120846384D01*
X156346467Y-120863557D01*
X156485087Y-120937652D01*
X156502991Y-120947222D01*
X156538729Y-120976552D01*
X156640186Y-121059814D01*
X156723448Y-121161271D01*
X156752778Y-121197009D01*
X156752779Y-121197011D01*
X156836443Y-121353533D01*
X156836443Y-121353534D01*
X156887963Y-121523373D01*
X156905359Y-121700000D01*
X156887963Y-121876627D01*
X156853616Y-121989853D01*
X156836443Y-122046467D01*
X156762348Y-122185087D01*
X156752778Y-122202991D01*
X156723448Y-122238729D01*
X156640186Y-122340186D01*
X156538729Y-122423448D01*
X156502991Y-122452778D01*
X156502989Y-122452779D01*
X156346467Y-122536443D01*
X156289853Y-122553616D01*
X156176627Y-122587963D01*
X156110443Y-122594481D01*
X156044260Y-122601000D01*
X155955740Y-122601000D01*
X155889557Y-122594481D01*
X155823373Y-122587963D01*
X155710147Y-122553616D01*
X155653533Y-122536443D01*
X155497011Y-122452779D01*
X155497009Y-122452778D01*
X155461271Y-122423448D01*
X155359814Y-122340186D01*
X155276552Y-122238729D01*
X155247222Y-122202991D01*
X155237652Y-122185087D01*
X155163557Y-122046467D01*
X155146384Y-121989853D01*
X155112037Y-121876627D01*
X155094641Y-121700000D01*
X155112037Y-121523373D01*
X155163557Y-121353534D01*
X155163557Y-121353533D01*
X155247221Y-121197011D01*
X155247222Y-121197009D01*
X155276552Y-121161271D01*
X155359814Y-121059814D01*
X155461271Y-120976552D01*
X155497009Y-120947222D01*
X155514913Y-120937652D01*
X155653533Y-120863557D01*
X155710147Y-120846384D01*
X155823373Y-120812037D01*
X155889557Y-120805519D01*
X155955740Y-120799000D01*
X156044260Y-120799000D01*
X156110443Y-120805519D01*
X156110443Y-120805519D01*
G37*
G36*
X156110442Y-118265518D02*
X156176627Y-118272037D01*
X156289853Y-118306384D01*
X156346467Y-118323557D01*
X156485087Y-118397652D01*
X156502991Y-118407222D01*
X156538729Y-118436552D01*
X156640186Y-118519814D01*
X156723448Y-118621271D01*
X156752778Y-118657009D01*
X156752779Y-118657011D01*
X156836443Y-118813533D01*
X156836443Y-118813534D01*
X156887963Y-118983373D01*
X156905359Y-119160000D01*
X156887963Y-119336627D01*
X156853616Y-119449853D01*
X156836443Y-119506467D01*
X156762348Y-119645087D01*
X156752778Y-119662991D01*
X156723448Y-119698729D01*
X156640186Y-119800186D01*
X156538729Y-119883448D01*
X156502991Y-119912778D01*
X156502989Y-119912779D01*
X156346467Y-119996443D01*
X156289853Y-120013616D01*
X156176627Y-120047963D01*
X156110443Y-120054481D01*
X156044260Y-120061000D01*
X155955740Y-120061000D01*
X155889557Y-120054481D01*
X155823373Y-120047963D01*
X155710147Y-120013616D01*
X155653533Y-119996443D01*
X155497011Y-119912779D01*
X155497009Y-119912778D01*
X155461271Y-119883448D01*
X155359814Y-119800186D01*
X155276552Y-119698729D01*
X155247222Y-119662991D01*
X155237652Y-119645087D01*
X155163557Y-119506467D01*
X155146384Y-119449853D01*
X155112037Y-119336627D01*
X155094641Y-119160000D01*
X155112037Y-118983373D01*
X155163557Y-118813534D01*
X155163557Y-118813533D01*
X155247221Y-118657011D01*
X155247222Y-118657009D01*
X155276552Y-118621271D01*
X155359814Y-118519814D01*
X155461271Y-118436552D01*
X155497009Y-118407222D01*
X155514913Y-118397652D01*
X155653533Y-118323557D01*
X155710147Y-118306384D01*
X155823373Y-118272037D01*
X155889558Y-118265518D01*
X155955740Y-118259000D01*
X156044260Y-118259000D01*
X156110442Y-118265518D01*
X156110442Y-118265518D01*
G37*
G36*
X156110443Y-115725519D02*
X156176627Y-115732037D01*
X156289853Y-115766384D01*
X156346467Y-115783557D01*
X156485087Y-115857652D01*
X156502991Y-115867222D01*
X156538729Y-115896552D01*
X156640186Y-115979814D01*
X156723448Y-116081271D01*
X156752778Y-116117009D01*
X156752779Y-116117011D01*
X156836443Y-116273533D01*
X156836443Y-116273534D01*
X156887963Y-116443373D01*
X156905359Y-116620000D01*
X156887963Y-116796627D01*
X156853616Y-116909853D01*
X156836443Y-116966467D01*
X156762348Y-117105087D01*
X156752778Y-117122991D01*
X156723448Y-117158729D01*
X156640186Y-117260186D01*
X156538729Y-117343448D01*
X156502991Y-117372778D01*
X156502989Y-117372779D01*
X156346467Y-117456443D01*
X156289853Y-117473616D01*
X156176627Y-117507963D01*
X156110443Y-117514481D01*
X156044260Y-117521000D01*
X155955740Y-117521000D01*
X155889557Y-117514481D01*
X155823373Y-117507963D01*
X155710147Y-117473616D01*
X155653533Y-117456443D01*
X155497011Y-117372779D01*
X155497009Y-117372778D01*
X155461271Y-117343448D01*
X155359814Y-117260186D01*
X155276552Y-117158729D01*
X155247222Y-117122991D01*
X155237652Y-117105087D01*
X155163557Y-116966467D01*
X155146384Y-116909853D01*
X155112037Y-116796627D01*
X155094641Y-116620000D01*
X155112037Y-116443373D01*
X155163557Y-116273534D01*
X155163557Y-116273533D01*
X155247221Y-116117011D01*
X155247222Y-116117009D01*
X155276552Y-116081271D01*
X155359814Y-115979814D01*
X155461271Y-115896552D01*
X155497009Y-115867222D01*
X155514913Y-115857652D01*
X155653533Y-115783557D01*
X155710147Y-115766384D01*
X155823373Y-115732037D01*
X155889557Y-115725519D01*
X155955740Y-115719000D01*
X156044260Y-115719000D01*
X156110443Y-115725519D01*
X156110443Y-115725519D01*
G37*
G36*
X156110442Y-113185518D02*
X156176627Y-113192037D01*
X156289853Y-113226384D01*
X156346467Y-113243557D01*
X156485087Y-113317652D01*
X156502991Y-113327222D01*
X156538729Y-113356552D01*
X156640186Y-113439814D01*
X156723448Y-113541271D01*
X156752778Y-113577009D01*
X156752779Y-113577011D01*
X156836443Y-113733533D01*
X156836443Y-113733534D01*
X156887963Y-113903373D01*
X156905359Y-114080000D01*
X156887963Y-114256627D01*
X156853616Y-114369853D01*
X156836443Y-114426467D01*
X156762348Y-114565087D01*
X156752778Y-114582991D01*
X156723448Y-114618729D01*
X156640186Y-114720186D01*
X156538729Y-114803448D01*
X156502991Y-114832778D01*
X156502989Y-114832779D01*
X156346467Y-114916443D01*
X156289853Y-114933616D01*
X156176627Y-114967963D01*
X156110442Y-114974482D01*
X156044260Y-114981000D01*
X155955740Y-114981000D01*
X155889558Y-114974482D01*
X155823373Y-114967963D01*
X155710147Y-114933616D01*
X155653533Y-114916443D01*
X155497011Y-114832779D01*
X155497009Y-114832778D01*
X155461271Y-114803448D01*
X155359814Y-114720186D01*
X155276552Y-114618729D01*
X155247222Y-114582991D01*
X155237652Y-114565087D01*
X155163557Y-114426467D01*
X155146384Y-114369853D01*
X155112037Y-114256627D01*
X155094641Y-114080000D01*
X155112037Y-113903373D01*
X155163557Y-113733534D01*
X155163557Y-113733533D01*
X155247221Y-113577011D01*
X155247222Y-113577009D01*
X155276552Y-113541271D01*
X155359814Y-113439814D01*
X155461271Y-113356552D01*
X155497009Y-113327222D01*
X155514913Y-113317652D01*
X155653533Y-113243557D01*
X155710147Y-113226384D01*
X155823373Y-113192037D01*
X155889558Y-113185518D01*
X155955740Y-113179000D01*
X156044260Y-113179000D01*
X156110442Y-113185518D01*
X156110442Y-113185518D01*
G37*
G36*
X156110442Y-110645518D02*
X156176627Y-110652037D01*
X156289853Y-110686384D01*
X156346467Y-110703557D01*
X156485087Y-110777652D01*
X156502991Y-110787222D01*
X156538729Y-110816552D01*
X156640186Y-110899814D01*
X156723448Y-111001271D01*
X156752778Y-111037009D01*
X156752779Y-111037011D01*
X156836443Y-111193533D01*
X156836443Y-111193534D01*
X156887963Y-111363373D01*
X156905359Y-111540000D01*
X156887963Y-111716627D01*
X156853616Y-111829853D01*
X156836443Y-111886467D01*
X156762348Y-112025087D01*
X156752778Y-112042991D01*
X156723448Y-112078729D01*
X156640186Y-112180186D01*
X156538729Y-112263448D01*
X156502991Y-112292778D01*
X156502989Y-112292779D01*
X156346467Y-112376443D01*
X156289853Y-112393616D01*
X156176627Y-112427963D01*
X156110442Y-112434482D01*
X156044260Y-112441000D01*
X155955740Y-112441000D01*
X155889558Y-112434482D01*
X155823373Y-112427963D01*
X155710147Y-112393616D01*
X155653533Y-112376443D01*
X155497011Y-112292779D01*
X155497009Y-112292778D01*
X155461271Y-112263448D01*
X155359814Y-112180186D01*
X155276552Y-112078729D01*
X155247222Y-112042991D01*
X155237652Y-112025087D01*
X155163557Y-111886467D01*
X155146384Y-111829853D01*
X155112037Y-111716627D01*
X155094641Y-111540000D01*
X155112037Y-111363373D01*
X155163557Y-111193534D01*
X155163557Y-111193533D01*
X155247221Y-111037011D01*
X155247222Y-111037009D01*
X155276552Y-111001271D01*
X155359814Y-110899814D01*
X155461271Y-110816552D01*
X155497009Y-110787222D01*
X155514913Y-110777652D01*
X155653533Y-110703557D01*
X155710147Y-110686384D01*
X155823373Y-110652037D01*
X155889558Y-110645518D01*
X155955740Y-110639000D01*
X156044260Y-110639000D01*
X156110442Y-110645518D01*
X156110442Y-110645518D01*
G37*
G36*
X156901000Y-109901000D02*
X155099000Y-109901000D01*
X155099000Y-108099000D01*
X156901000Y-108099000D01*
X156901000Y-109901000D01*
X156901000Y-109901000D01*
G37*
G36*
X156110442Y-99805518D02*
X156176627Y-99812037D01*
X156289853Y-99846384D01*
X156346467Y-99863557D01*
X156485087Y-99937652D01*
X156502991Y-99947222D01*
X156538729Y-99976552D01*
X156640186Y-100059814D01*
X156723448Y-100161271D01*
X156752778Y-100197009D01*
X156752779Y-100197011D01*
X156836443Y-100353533D01*
X156836443Y-100353534D01*
X156887963Y-100523373D01*
X156905359Y-100700000D01*
X156887963Y-100876627D01*
X156853616Y-100989853D01*
X156836443Y-101046467D01*
X156762348Y-101185087D01*
X156752778Y-101202991D01*
X156723448Y-101238729D01*
X156640186Y-101340186D01*
X156538729Y-101423448D01*
X156502991Y-101452778D01*
X156502989Y-101452779D01*
X156346467Y-101536443D01*
X156289853Y-101553616D01*
X156176627Y-101587963D01*
X156110443Y-101594481D01*
X156044260Y-101601000D01*
X155955740Y-101601000D01*
X155889557Y-101594481D01*
X155823373Y-101587963D01*
X155710147Y-101553616D01*
X155653533Y-101536443D01*
X155497011Y-101452779D01*
X155497009Y-101452778D01*
X155461271Y-101423448D01*
X155359814Y-101340186D01*
X155276552Y-101238729D01*
X155247222Y-101202991D01*
X155237652Y-101185087D01*
X155163557Y-101046467D01*
X155146384Y-100989853D01*
X155112037Y-100876627D01*
X155094641Y-100700000D01*
X155112037Y-100523373D01*
X155163557Y-100353534D01*
X155163557Y-100353533D01*
X155247221Y-100197011D01*
X155247222Y-100197009D01*
X155276552Y-100161271D01*
X155359814Y-100059814D01*
X155461271Y-99976552D01*
X155497009Y-99947222D01*
X155514913Y-99937652D01*
X155653533Y-99863557D01*
X155710147Y-99846384D01*
X155823373Y-99812037D01*
X155889558Y-99805518D01*
X155955740Y-99799000D01*
X156044260Y-99799000D01*
X156110442Y-99805518D01*
X156110442Y-99805518D01*
G37*
G36*
X156110443Y-97265519D02*
X156176627Y-97272037D01*
X156289853Y-97306384D01*
X156346467Y-97323557D01*
X156485087Y-97397652D01*
X156502991Y-97407222D01*
X156538729Y-97436552D01*
X156640186Y-97519814D01*
X156723448Y-97621271D01*
X156752778Y-97657009D01*
X156752779Y-97657011D01*
X156836443Y-97813533D01*
X156836443Y-97813534D01*
X156887963Y-97983373D01*
X156905359Y-98160000D01*
X156887963Y-98336627D01*
X156853616Y-98449853D01*
X156836443Y-98506467D01*
X156762348Y-98645087D01*
X156752778Y-98662991D01*
X156723448Y-98698729D01*
X156640186Y-98800186D01*
X156538729Y-98883448D01*
X156502991Y-98912778D01*
X156502989Y-98912779D01*
X156346467Y-98996443D01*
X156289853Y-99013616D01*
X156176627Y-99047963D01*
X156110442Y-99054482D01*
X156044260Y-99061000D01*
X155955740Y-99061000D01*
X155889557Y-99054481D01*
X155823373Y-99047963D01*
X155710147Y-99013616D01*
X155653533Y-98996443D01*
X155497011Y-98912779D01*
X155497009Y-98912778D01*
X155461271Y-98883448D01*
X155359814Y-98800186D01*
X155276552Y-98698729D01*
X155247222Y-98662991D01*
X155237652Y-98645087D01*
X155163557Y-98506467D01*
X155146384Y-98449853D01*
X155112037Y-98336627D01*
X155094641Y-98160000D01*
X155112037Y-97983373D01*
X155163557Y-97813534D01*
X155163557Y-97813533D01*
X155247221Y-97657011D01*
X155247222Y-97657009D01*
X155276552Y-97621271D01*
X155359814Y-97519814D01*
X155461271Y-97436552D01*
X155497009Y-97407222D01*
X155514913Y-97397652D01*
X155653533Y-97323557D01*
X155710147Y-97306384D01*
X155823373Y-97272037D01*
X155889557Y-97265519D01*
X155955740Y-97259000D01*
X156044260Y-97259000D01*
X156110443Y-97265519D01*
X156110443Y-97265519D01*
G37*
G36*
X156110442Y-94725518D02*
X156176627Y-94732037D01*
X156289853Y-94766384D01*
X156346467Y-94783557D01*
X156485087Y-94857652D01*
X156502991Y-94867222D01*
X156538729Y-94896552D01*
X156640186Y-94979814D01*
X156723448Y-95081271D01*
X156752778Y-95117009D01*
X156752779Y-95117011D01*
X156836443Y-95273533D01*
X156836443Y-95273534D01*
X156887963Y-95443373D01*
X156905359Y-95620000D01*
X156887963Y-95796627D01*
X156853616Y-95909853D01*
X156836443Y-95966467D01*
X156762348Y-96105087D01*
X156752778Y-96122991D01*
X156723448Y-96158729D01*
X156640186Y-96260186D01*
X156538729Y-96343448D01*
X156502991Y-96372778D01*
X156502989Y-96372779D01*
X156346467Y-96456443D01*
X156289853Y-96473616D01*
X156176627Y-96507963D01*
X156110442Y-96514482D01*
X156044260Y-96521000D01*
X155955740Y-96521000D01*
X155889558Y-96514482D01*
X155823373Y-96507963D01*
X155710147Y-96473616D01*
X155653533Y-96456443D01*
X155497011Y-96372779D01*
X155497009Y-96372778D01*
X155461271Y-96343448D01*
X155359814Y-96260186D01*
X155276552Y-96158729D01*
X155247222Y-96122991D01*
X155237652Y-96105087D01*
X155163557Y-95966467D01*
X155146384Y-95909853D01*
X155112037Y-95796627D01*
X155094641Y-95620000D01*
X155112037Y-95443373D01*
X155163557Y-95273534D01*
X155163557Y-95273533D01*
X155247221Y-95117011D01*
X155247222Y-95117009D01*
X155276552Y-95081271D01*
X155359814Y-94979814D01*
X155461271Y-94896552D01*
X155497009Y-94867222D01*
X155514913Y-94857652D01*
X155653533Y-94783557D01*
X155710147Y-94766384D01*
X155823373Y-94732037D01*
X155889557Y-94725519D01*
X155955740Y-94719000D01*
X156044260Y-94719000D01*
X156110442Y-94725518D01*
X156110442Y-94725518D01*
G37*
G36*
X156110443Y-92185519D02*
X156176627Y-92192037D01*
X156289853Y-92226384D01*
X156346467Y-92243557D01*
X156485087Y-92317652D01*
X156502991Y-92327222D01*
X156538729Y-92356552D01*
X156640186Y-92439814D01*
X156723448Y-92541271D01*
X156752778Y-92577009D01*
X156752779Y-92577011D01*
X156836443Y-92733533D01*
X156836443Y-92733534D01*
X156887963Y-92903373D01*
X156905359Y-93080000D01*
X156887963Y-93256627D01*
X156853616Y-93369853D01*
X156836443Y-93426467D01*
X156762348Y-93565087D01*
X156752778Y-93582991D01*
X156723448Y-93618729D01*
X156640186Y-93720186D01*
X156538729Y-93803448D01*
X156502991Y-93832778D01*
X156502989Y-93832779D01*
X156346467Y-93916443D01*
X156289853Y-93933616D01*
X156176627Y-93967963D01*
X156110442Y-93974482D01*
X156044260Y-93981000D01*
X155955740Y-93981000D01*
X155889558Y-93974482D01*
X155823373Y-93967963D01*
X155710147Y-93933616D01*
X155653533Y-93916443D01*
X155497011Y-93832779D01*
X155497009Y-93832778D01*
X155461271Y-93803448D01*
X155359814Y-93720186D01*
X155276552Y-93618729D01*
X155247222Y-93582991D01*
X155237652Y-93565087D01*
X155163557Y-93426467D01*
X155146384Y-93369853D01*
X155112037Y-93256627D01*
X155094641Y-93080000D01*
X155112037Y-92903373D01*
X155163557Y-92733534D01*
X155163557Y-92733533D01*
X155247221Y-92577011D01*
X155247222Y-92577009D01*
X155276552Y-92541271D01*
X155359814Y-92439814D01*
X155461271Y-92356552D01*
X155497009Y-92327222D01*
X155514913Y-92317652D01*
X155653533Y-92243557D01*
X155710147Y-92226384D01*
X155823373Y-92192037D01*
X155889557Y-92185519D01*
X155955740Y-92179000D01*
X156044260Y-92179000D01*
X156110443Y-92185519D01*
X156110443Y-92185519D01*
G37*
G36*
X156110442Y-89645518D02*
X156176627Y-89652037D01*
X156289853Y-89686384D01*
X156346467Y-89703557D01*
X156485087Y-89777652D01*
X156502991Y-89787222D01*
X156538729Y-89816552D01*
X156640186Y-89899814D01*
X156723448Y-90001271D01*
X156752778Y-90037009D01*
X156752779Y-90037011D01*
X156836443Y-90193533D01*
X156836443Y-90193534D01*
X156887963Y-90363373D01*
X156905359Y-90540000D01*
X156887963Y-90716627D01*
X156853616Y-90829853D01*
X156836443Y-90886467D01*
X156762348Y-91025087D01*
X156752778Y-91042991D01*
X156723448Y-91078729D01*
X156640186Y-91180186D01*
X156538729Y-91263448D01*
X156502991Y-91292778D01*
X156502989Y-91292779D01*
X156346467Y-91376443D01*
X156289853Y-91393616D01*
X156176627Y-91427963D01*
X156110443Y-91434481D01*
X156044260Y-91441000D01*
X155955740Y-91441000D01*
X155889557Y-91434481D01*
X155823373Y-91427963D01*
X155710147Y-91393616D01*
X155653533Y-91376443D01*
X155497011Y-91292779D01*
X155497009Y-91292778D01*
X155461271Y-91263448D01*
X155359814Y-91180186D01*
X155276552Y-91078729D01*
X155247222Y-91042991D01*
X155237652Y-91025087D01*
X155163557Y-90886467D01*
X155146384Y-90829853D01*
X155112037Y-90716627D01*
X155094641Y-90540000D01*
X155112037Y-90363373D01*
X155163557Y-90193534D01*
X155163557Y-90193533D01*
X155247221Y-90037011D01*
X155247222Y-90037009D01*
X155276552Y-90001271D01*
X155359814Y-89899814D01*
X155461271Y-89816552D01*
X155497009Y-89787222D01*
X155514913Y-89777652D01*
X155653533Y-89703557D01*
X155710147Y-89686384D01*
X155823373Y-89652037D01*
X155889558Y-89645518D01*
X155955740Y-89639000D01*
X156044260Y-89639000D01*
X156110442Y-89645518D01*
X156110442Y-89645518D01*
G37*
G36*
X156901000Y-88901000D02*
X155099000Y-88901000D01*
X155099000Y-87099000D01*
X156901000Y-87099000D01*
X156901000Y-88901000D01*
X156901000Y-88901000D01*
G37*
G36*
X133639294Y-85723633D02*
X133811694Y-85775931D01*
X133811696Y-85775932D01*
X133970583Y-85860859D01*
X133970585Y-85860860D01*
X133970584Y-85860860D01*
X134109849Y-85975151D01*
X134224140Y-86114416D01*
X134309069Y-86273306D01*
X134361367Y-86445706D01*
X134379025Y-86625000D01*
X134361367Y-86804294D01*
X134309069Y-86976694D01*
X134309068Y-86976696D01*
X134224141Y-87135583D01*
X134109849Y-87274849D01*
X133970583Y-87389141D01*
X133811696Y-87474068D01*
X133811694Y-87474069D01*
X133639294Y-87526367D01*
X133504931Y-87539600D01*
X133415069Y-87539600D01*
X133280706Y-87526367D01*
X133108306Y-87474069D01*
X133108304Y-87474068D01*
X132949417Y-87389141D01*
X132810151Y-87274849D01*
X132695859Y-87135583D01*
X132610932Y-86976696D01*
X132610931Y-86976694D01*
X132558633Y-86804294D01*
X132540975Y-86625000D01*
X132558633Y-86445706D01*
X132610931Y-86273306D01*
X132695860Y-86114416D01*
X132810151Y-85975151D01*
X132949416Y-85860860D01*
X132949415Y-85860860D01*
X132949417Y-85860859D01*
X133108304Y-85775932D01*
X133108306Y-85775931D01*
X133280706Y-85723633D01*
X133415069Y-85710400D01*
X133504931Y-85710400D01*
X133639294Y-85723633D01*
X133639294Y-85723633D01*
G37*
G36*
X136914600Y-87539600D02*
X135085400Y-87539600D01*
X135085400Y-85710400D01*
X136914600Y-85710400D01*
X136914600Y-87539600D01*
X136914600Y-87539600D01*
G37*
G36*
X133639294Y-83183633D02*
X133811694Y-83235931D01*
X133811696Y-83235932D01*
X133970583Y-83320859D01*
X133970585Y-83320860D01*
X133970584Y-83320860D01*
X134109849Y-83435151D01*
X134224140Y-83574416D01*
X134309069Y-83733306D01*
X134361367Y-83905706D01*
X134379025Y-84085000D01*
X134361367Y-84264294D01*
X134309069Y-84436694D01*
X134309068Y-84436696D01*
X134224141Y-84595583D01*
X134109849Y-84734849D01*
X133970583Y-84849141D01*
X133811696Y-84934068D01*
X133811694Y-84934069D01*
X133639294Y-84986367D01*
X133504931Y-84999600D01*
X133415069Y-84999600D01*
X133280706Y-84986367D01*
X133108306Y-84934069D01*
X133108304Y-84934068D01*
X132949417Y-84849141D01*
X132810151Y-84734849D01*
X132695859Y-84595583D01*
X132610932Y-84436696D01*
X132610931Y-84436694D01*
X132558633Y-84264294D01*
X132540975Y-84085000D01*
X132558633Y-83905706D01*
X132610931Y-83733306D01*
X132695860Y-83574416D01*
X132810151Y-83435151D01*
X132949416Y-83320860D01*
X132949415Y-83320860D01*
X132949417Y-83320859D01*
X133108304Y-83235932D01*
X133108306Y-83235931D01*
X133280706Y-83183633D01*
X133415069Y-83170400D01*
X133504931Y-83170400D01*
X133639294Y-83183633D01*
X133639294Y-83183633D01*
G37*
G36*
X136179294Y-83183633D02*
X136351694Y-83235931D01*
X136351696Y-83235932D01*
X136510583Y-83320859D01*
X136510585Y-83320860D01*
X136510584Y-83320860D01*
X136649849Y-83435151D01*
X136764140Y-83574416D01*
X136849069Y-83733306D01*
X136901367Y-83905706D01*
X136919025Y-84085000D01*
X136901367Y-84264294D01*
X136849069Y-84436694D01*
X136849068Y-84436696D01*
X136764141Y-84595583D01*
X136649849Y-84734849D01*
X136510583Y-84849141D01*
X136351696Y-84934068D01*
X136351694Y-84934069D01*
X136179294Y-84986367D01*
X136044931Y-84999600D01*
X135955069Y-84999600D01*
X135820706Y-84986367D01*
X135648306Y-84934069D01*
X135648304Y-84934068D01*
X135489417Y-84849141D01*
X135350151Y-84734849D01*
X135235859Y-84595583D01*
X135150932Y-84436696D01*
X135150931Y-84436694D01*
X135098633Y-84264294D01*
X135080975Y-84085000D01*
X135098633Y-83905706D01*
X135150931Y-83733306D01*
X135235860Y-83574416D01*
X135350151Y-83435151D01*
X135489416Y-83320860D01*
X135489415Y-83320860D01*
X135489417Y-83320859D01*
X135648304Y-83235932D01*
X135648306Y-83235931D01*
X135820706Y-83183633D01*
X135955069Y-83170400D01*
X136044931Y-83170400D01*
X136179294Y-83183633D01*
X136179294Y-83183633D01*
G37*
G36*
X136179294Y-80643633D02*
X136351694Y-80695931D01*
X136351696Y-80695932D01*
X136510583Y-80780859D01*
X136510585Y-80780860D01*
X136510584Y-80780860D01*
X136649849Y-80895151D01*
X136764140Y-81034416D01*
X136849069Y-81193306D01*
X136901367Y-81365706D01*
X136919025Y-81545000D01*
X136901367Y-81724294D01*
X136849069Y-81896694D01*
X136849068Y-81896696D01*
X136764141Y-82055583D01*
X136649849Y-82194849D01*
X136510583Y-82309141D01*
X136351696Y-82394068D01*
X136351694Y-82394069D01*
X136179294Y-82446367D01*
X136044931Y-82459600D01*
X135955069Y-82459600D01*
X135820706Y-82446367D01*
X135648306Y-82394069D01*
X135648304Y-82394068D01*
X135489417Y-82309141D01*
X135350151Y-82194849D01*
X135235859Y-82055583D01*
X135150932Y-81896696D01*
X135150931Y-81896694D01*
X135098633Y-81724294D01*
X135080975Y-81545000D01*
X135098633Y-81365706D01*
X135150931Y-81193306D01*
X135235860Y-81034416D01*
X135350151Y-80895151D01*
X135489416Y-80780860D01*
X135489415Y-80780860D01*
X135489417Y-80780859D01*
X135648304Y-80695932D01*
X135648306Y-80695931D01*
X135820706Y-80643633D01*
X135955069Y-80630400D01*
X136044931Y-80630400D01*
X136179294Y-80643633D01*
X136179294Y-80643633D01*
G37*
G36*
X133639294Y-80643633D02*
X133811694Y-80695931D01*
X133811696Y-80695932D01*
X133970583Y-80780859D01*
X133970585Y-80780860D01*
X133970584Y-80780860D01*
X134109849Y-80895151D01*
X134224140Y-81034416D01*
X134309069Y-81193306D01*
X134361367Y-81365706D01*
X134379025Y-81545000D01*
X134361367Y-81724294D01*
X134309069Y-81896694D01*
X134309068Y-81896696D01*
X134224141Y-82055583D01*
X134109849Y-82194849D01*
X133970583Y-82309141D01*
X133811696Y-82394068D01*
X133811694Y-82394069D01*
X133639294Y-82446367D01*
X133504931Y-82459600D01*
X133415069Y-82459600D01*
X133280706Y-82446367D01*
X133108306Y-82394069D01*
X133108304Y-82394068D01*
X132949417Y-82309141D01*
X132810151Y-82194849D01*
X132695859Y-82055583D01*
X132610932Y-81896696D01*
X132610931Y-81896694D01*
X132558633Y-81724294D01*
X132540975Y-81545000D01*
X132558633Y-81365706D01*
X132610931Y-81193306D01*
X132695860Y-81034416D01*
X132810151Y-80895151D01*
X132949416Y-80780860D01*
X132949415Y-80780860D01*
X132949417Y-80780859D01*
X133108304Y-80695932D01*
X133108306Y-80695931D01*
X133280706Y-80643633D01*
X133415069Y-80630400D01*
X133504931Y-80630400D01*
X133639294Y-80643633D01*
X133639294Y-80643633D01*
G37*
G36*
X156110443Y-78425519D02*
X156176627Y-78432037D01*
X156289853Y-78466384D01*
X156346467Y-78483557D01*
X156485087Y-78557652D01*
X156502991Y-78567222D01*
X156538729Y-78596552D01*
X156640186Y-78679814D01*
X156723448Y-78781271D01*
X156752778Y-78817009D01*
X156752779Y-78817011D01*
X156836443Y-78973533D01*
X156836443Y-78973534D01*
X156887963Y-79143373D01*
X156905359Y-79320000D01*
X156887963Y-79496627D01*
X156882212Y-79515584D01*
X156836443Y-79666467D01*
X156781562Y-79769140D01*
X156752778Y-79822991D01*
X156727274Y-79854068D01*
X156640186Y-79960186D01*
X156538729Y-80043448D01*
X156502991Y-80072778D01*
X156502989Y-80072779D01*
X156346467Y-80156443D01*
X156289853Y-80173616D01*
X156176627Y-80207963D01*
X156110443Y-80214481D01*
X156044260Y-80221000D01*
X155955740Y-80221000D01*
X155889557Y-80214481D01*
X155823373Y-80207963D01*
X155710147Y-80173616D01*
X155653533Y-80156443D01*
X155497011Y-80072779D01*
X155497009Y-80072778D01*
X155461271Y-80043448D01*
X155359814Y-79960186D01*
X155272726Y-79854068D01*
X155247222Y-79822991D01*
X155218438Y-79769140D01*
X155163557Y-79666467D01*
X155117788Y-79515584D01*
X155112037Y-79496627D01*
X155094641Y-79320000D01*
X155112037Y-79143373D01*
X155163557Y-78973534D01*
X155163557Y-78973533D01*
X155247221Y-78817011D01*
X155247222Y-78817009D01*
X155276552Y-78781271D01*
X155359814Y-78679814D01*
X155461271Y-78596552D01*
X155497009Y-78567222D01*
X155514913Y-78557652D01*
X155653533Y-78483557D01*
X155710147Y-78466384D01*
X155823373Y-78432037D01*
X155889557Y-78425519D01*
X155955740Y-78419000D01*
X156044260Y-78419000D01*
X156110443Y-78425519D01*
X156110443Y-78425519D01*
G37*
G36*
X136179294Y-78103633D02*
X136351694Y-78155931D01*
X136351696Y-78155932D01*
X136510583Y-78240859D01*
X136649849Y-78355151D01*
X136764141Y-78494417D01*
X136803056Y-78567222D01*
X136849069Y-78653306D01*
X136901367Y-78825706D01*
X136919025Y-79005000D01*
X136901367Y-79184294D01*
X136860200Y-79320000D01*
X136849068Y-79356696D01*
X136764141Y-79515583D01*
X136649849Y-79654849D01*
X136510583Y-79769141D01*
X136351696Y-79854068D01*
X136351694Y-79854069D01*
X136179294Y-79906367D01*
X136044931Y-79919600D01*
X135955069Y-79919600D01*
X135820706Y-79906367D01*
X135648306Y-79854069D01*
X135648304Y-79854068D01*
X135489417Y-79769141D01*
X135350151Y-79654849D01*
X135235859Y-79515583D01*
X135150932Y-79356696D01*
X135139800Y-79320000D01*
X135098633Y-79184294D01*
X135080975Y-79005000D01*
X135098633Y-78825706D01*
X135150931Y-78653306D01*
X135196944Y-78567222D01*
X135235859Y-78494417D01*
X135350151Y-78355151D01*
X135489417Y-78240859D01*
X135648304Y-78155932D01*
X135648306Y-78155931D01*
X135820706Y-78103633D01*
X135955069Y-78090400D01*
X136044931Y-78090400D01*
X136179294Y-78103633D01*
X136179294Y-78103633D01*
G37*
G36*
X133639294Y-78103633D02*
X133811694Y-78155931D01*
X133811696Y-78155932D01*
X133970583Y-78240859D01*
X134109849Y-78355151D01*
X134224141Y-78494417D01*
X134263056Y-78567222D01*
X134309069Y-78653306D01*
X134361367Y-78825706D01*
X134379025Y-79005000D01*
X134361367Y-79184294D01*
X134320200Y-79320000D01*
X134309068Y-79356696D01*
X134224141Y-79515583D01*
X134109849Y-79654849D01*
X133970583Y-79769141D01*
X133811696Y-79854068D01*
X133811694Y-79854069D01*
X133639294Y-79906367D01*
X133504931Y-79919600D01*
X133415069Y-79919600D01*
X133280706Y-79906367D01*
X133108306Y-79854069D01*
X133108304Y-79854068D01*
X132949417Y-79769141D01*
X132810151Y-79654849D01*
X132695859Y-79515583D01*
X132610932Y-79356696D01*
X132599800Y-79320000D01*
X132558633Y-79184294D01*
X132540975Y-79005000D01*
X132558633Y-78825706D01*
X132610931Y-78653306D01*
X132656944Y-78567222D01*
X132695859Y-78494417D01*
X132810151Y-78355151D01*
X132949417Y-78240859D01*
X133108304Y-78155932D01*
X133108306Y-78155931D01*
X133280706Y-78103633D01*
X133415069Y-78090400D01*
X133504931Y-78090400D01*
X133639294Y-78103633D01*
X133639294Y-78103633D01*
G37*
G36*
X156110442Y-75885518D02*
X156176627Y-75892037D01*
X156289853Y-75926384D01*
X156346467Y-75943557D01*
X156485087Y-76017652D01*
X156502991Y-76027222D01*
X156538729Y-76056552D01*
X156640186Y-76139814D01*
X156723448Y-76241271D01*
X156752778Y-76277009D01*
X156752779Y-76277011D01*
X156836443Y-76433533D01*
X156836443Y-76433534D01*
X156887963Y-76603373D01*
X156905359Y-76780000D01*
X156887963Y-76956627D01*
X156882212Y-76975584D01*
X156836443Y-77126467D01*
X156781562Y-77229140D01*
X156752778Y-77282991D01*
X156727274Y-77314068D01*
X156640186Y-77420186D01*
X156538729Y-77503448D01*
X156502991Y-77532778D01*
X156502989Y-77532779D01*
X156346467Y-77616443D01*
X156289853Y-77633616D01*
X156176627Y-77667963D01*
X156110442Y-77674482D01*
X156044260Y-77681000D01*
X155955740Y-77681000D01*
X155889558Y-77674482D01*
X155823373Y-77667963D01*
X155710147Y-77633616D01*
X155653533Y-77616443D01*
X155497011Y-77532779D01*
X155497009Y-77532778D01*
X155461271Y-77503448D01*
X155359814Y-77420186D01*
X155272726Y-77314068D01*
X155247222Y-77282991D01*
X155218438Y-77229140D01*
X155163557Y-77126467D01*
X155117788Y-76975584D01*
X155112037Y-76956627D01*
X155094641Y-76780000D01*
X155112037Y-76603373D01*
X155163557Y-76433534D01*
X155163557Y-76433533D01*
X155247221Y-76277011D01*
X155247222Y-76277009D01*
X155276552Y-76241271D01*
X155359814Y-76139814D01*
X155461271Y-76056552D01*
X155497009Y-76027222D01*
X155514913Y-76017652D01*
X155653533Y-75943557D01*
X155710147Y-75926384D01*
X155823373Y-75892037D01*
X155889558Y-75885518D01*
X155955740Y-75879000D01*
X156044260Y-75879000D01*
X156110442Y-75885518D01*
X156110442Y-75885518D01*
G37*
G36*
X136179294Y-75563633D02*
X136351694Y-75615931D01*
X136351696Y-75615932D01*
X136510583Y-75700859D01*
X136649849Y-75815151D01*
X136764141Y-75954417D01*
X136803056Y-76027222D01*
X136849069Y-76113306D01*
X136901367Y-76285706D01*
X136919025Y-76465000D01*
X136901367Y-76644294D01*
X136860200Y-76780000D01*
X136849068Y-76816696D01*
X136764141Y-76975583D01*
X136649849Y-77114849D01*
X136510583Y-77229141D01*
X136351696Y-77314068D01*
X136351694Y-77314069D01*
X136179294Y-77366367D01*
X136044931Y-77379600D01*
X135955069Y-77379600D01*
X135820706Y-77366367D01*
X135648306Y-77314069D01*
X135648304Y-77314068D01*
X135489417Y-77229141D01*
X135350151Y-77114849D01*
X135235859Y-76975583D01*
X135150932Y-76816696D01*
X135139800Y-76780000D01*
X135098633Y-76644294D01*
X135080975Y-76465000D01*
X135098633Y-76285706D01*
X135150931Y-76113306D01*
X135196944Y-76027222D01*
X135235859Y-75954417D01*
X135350151Y-75815151D01*
X135489417Y-75700859D01*
X135648304Y-75615932D01*
X135648306Y-75615931D01*
X135820706Y-75563633D01*
X135955069Y-75550400D01*
X136044931Y-75550400D01*
X136179294Y-75563633D01*
X136179294Y-75563633D01*
G37*
G36*
X133639294Y-75563633D02*
X133811694Y-75615931D01*
X133811696Y-75615932D01*
X133970583Y-75700859D01*
X134109849Y-75815151D01*
X134224141Y-75954417D01*
X134263056Y-76027222D01*
X134309069Y-76113306D01*
X134361367Y-76285706D01*
X134379025Y-76465000D01*
X134361367Y-76644294D01*
X134320200Y-76780000D01*
X134309068Y-76816696D01*
X134224141Y-76975583D01*
X134109849Y-77114849D01*
X133970583Y-77229141D01*
X133811696Y-77314068D01*
X133811694Y-77314069D01*
X133639294Y-77366367D01*
X133504931Y-77379600D01*
X133415069Y-77379600D01*
X133280706Y-77366367D01*
X133108306Y-77314069D01*
X133108304Y-77314068D01*
X132949417Y-77229141D01*
X132810151Y-77114849D01*
X132695859Y-76975583D01*
X132610932Y-76816696D01*
X132599800Y-76780000D01*
X132558633Y-76644294D01*
X132540975Y-76465000D01*
X132558633Y-76285706D01*
X132610931Y-76113306D01*
X132656944Y-76027222D01*
X132695859Y-75954417D01*
X132810151Y-75815151D01*
X132949417Y-75700859D01*
X133108304Y-75615932D01*
X133108306Y-75615931D01*
X133280706Y-75563633D01*
X133415069Y-75550400D01*
X133504931Y-75550400D01*
X133639294Y-75563633D01*
X133639294Y-75563633D01*
G37*
G36*
X156110443Y-73345519D02*
X156176627Y-73352037D01*
X156289853Y-73386384D01*
X156346467Y-73403557D01*
X156485087Y-73477652D01*
X156502991Y-73487222D01*
X156538729Y-73516552D01*
X156640186Y-73599814D01*
X156723448Y-73701271D01*
X156752778Y-73737009D01*
X156752779Y-73737011D01*
X156836443Y-73893533D01*
X156836443Y-73893534D01*
X156887963Y-74063373D01*
X156905359Y-74240000D01*
X156887963Y-74416627D01*
X156882212Y-74435584D01*
X156836443Y-74586467D01*
X156781562Y-74689140D01*
X156752778Y-74742991D01*
X156727274Y-74774068D01*
X156640186Y-74880186D01*
X156538729Y-74963448D01*
X156502991Y-74992778D01*
X156502989Y-74992779D01*
X156346467Y-75076443D01*
X156289853Y-75093616D01*
X156176627Y-75127963D01*
X156110443Y-75134481D01*
X156044260Y-75141000D01*
X155955740Y-75141000D01*
X155889557Y-75134481D01*
X155823373Y-75127963D01*
X155710147Y-75093616D01*
X155653533Y-75076443D01*
X155497011Y-74992779D01*
X155497009Y-74992778D01*
X155461271Y-74963448D01*
X155359814Y-74880186D01*
X155272726Y-74774068D01*
X155247222Y-74742991D01*
X155218438Y-74689140D01*
X155163557Y-74586467D01*
X155117788Y-74435584D01*
X155112037Y-74416627D01*
X155094641Y-74240000D01*
X155112037Y-74063373D01*
X155163557Y-73893534D01*
X155163557Y-73893533D01*
X155247221Y-73737011D01*
X155247222Y-73737009D01*
X155276552Y-73701271D01*
X155359814Y-73599814D01*
X155461271Y-73516552D01*
X155497009Y-73487222D01*
X155514913Y-73477652D01*
X155653533Y-73403557D01*
X155710147Y-73386384D01*
X155823373Y-73352037D01*
X155889557Y-73345519D01*
X155955740Y-73339000D01*
X156044260Y-73339000D01*
X156110443Y-73345519D01*
X156110443Y-73345519D01*
G37*
G36*
X136179294Y-73023633D02*
X136351694Y-73075931D01*
X136351696Y-73075932D01*
X136510583Y-73160859D01*
X136649849Y-73275151D01*
X136764141Y-73414417D01*
X136803056Y-73487222D01*
X136849069Y-73573306D01*
X136901367Y-73745706D01*
X136919025Y-73925000D01*
X136901367Y-74104294D01*
X136860200Y-74240000D01*
X136849068Y-74276696D01*
X136764141Y-74435583D01*
X136649849Y-74574849D01*
X136510583Y-74689141D01*
X136351696Y-74774068D01*
X136351694Y-74774069D01*
X136179294Y-74826367D01*
X136044931Y-74839600D01*
X135955069Y-74839600D01*
X135820706Y-74826367D01*
X135648306Y-74774069D01*
X135648304Y-74774068D01*
X135489417Y-74689141D01*
X135350151Y-74574849D01*
X135235859Y-74435583D01*
X135150932Y-74276696D01*
X135139800Y-74240000D01*
X135098633Y-74104294D01*
X135080975Y-73925000D01*
X135098633Y-73745706D01*
X135150931Y-73573306D01*
X135196944Y-73487222D01*
X135235859Y-73414417D01*
X135350151Y-73275151D01*
X135489417Y-73160859D01*
X135648304Y-73075932D01*
X135648306Y-73075931D01*
X135820706Y-73023633D01*
X135955069Y-73010400D01*
X136044931Y-73010400D01*
X136179294Y-73023633D01*
X136179294Y-73023633D01*
G37*
G36*
X133639294Y-73023633D02*
X133811694Y-73075931D01*
X133811696Y-73075932D01*
X133970583Y-73160859D01*
X134109849Y-73275151D01*
X134224141Y-73414417D01*
X134263056Y-73487222D01*
X134309069Y-73573306D01*
X134361367Y-73745706D01*
X134379025Y-73925000D01*
X134361367Y-74104294D01*
X134320200Y-74240000D01*
X134309068Y-74276696D01*
X134224141Y-74435583D01*
X134109849Y-74574849D01*
X133970583Y-74689141D01*
X133811696Y-74774068D01*
X133811694Y-74774069D01*
X133639294Y-74826367D01*
X133504931Y-74839600D01*
X133415069Y-74839600D01*
X133280706Y-74826367D01*
X133108306Y-74774069D01*
X133108304Y-74774068D01*
X132949417Y-74689141D01*
X132810151Y-74574849D01*
X132695859Y-74435583D01*
X132610932Y-74276696D01*
X132599800Y-74240000D01*
X132558633Y-74104294D01*
X132540975Y-73925000D01*
X132558633Y-73745706D01*
X132610931Y-73573306D01*
X132656944Y-73487222D01*
X132695859Y-73414417D01*
X132810151Y-73275151D01*
X132949417Y-73160859D01*
X133108304Y-73075932D01*
X133108306Y-73075931D01*
X133280706Y-73023633D01*
X133415069Y-73010400D01*
X133504931Y-73010400D01*
X133639294Y-73023633D01*
X133639294Y-73023633D01*
G37*
G36*
X156110443Y-70805519D02*
X156176627Y-70812037D01*
X156289853Y-70846384D01*
X156346467Y-70863557D01*
X156485087Y-70937652D01*
X156502991Y-70947222D01*
X156538729Y-70976552D01*
X156640186Y-71059814D01*
X156723448Y-71161271D01*
X156752778Y-71197009D01*
X156752779Y-71197011D01*
X156836443Y-71353533D01*
X156836443Y-71353534D01*
X156887963Y-71523373D01*
X156905359Y-71700000D01*
X156887963Y-71876627D01*
X156882212Y-71895584D01*
X156836443Y-72046467D01*
X156781562Y-72149140D01*
X156752778Y-72202991D01*
X156727274Y-72234068D01*
X156640186Y-72340186D01*
X156538729Y-72423448D01*
X156502991Y-72452778D01*
X156502989Y-72452779D01*
X156346467Y-72536443D01*
X156289853Y-72553616D01*
X156176627Y-72587963D01*
X156110442Y-72594482D01*
X156044260Y-72601000D01*
X155955740Y-72601000D01*
X155889558Y-72594482D01*
X155823373Y-72587963D01*
X155710147Y-72553616D01*
X155653533Y-72536443D01*
X155497011Y-72452779D01*
X155497009Y-72452778D01*
X155461271Y-72423448D01*
X155359814Y-72340186D01*
X155272726Y-72234068D01*
X155247222Y-72202991D01*
X155218438Y-72149140D01*
X155163557Y-72046467D01*
X155117788Y-71895584D01*
X155112037Y-71876627D01*
X155094641Y-71700000D01*
X155112037Y-71523373D01*
X155163557Y-71353534D01*
X155163557Y-71353533D01*
X155247221Y-71197011D01*
X155247222Y-71197009D01*
X155276552Y-71161271D01*
X155359814Y-71059814D01*
X155461271Y-70976552D01*
X155497009Y-70947222D01*
X155514913Y-70937652D01*
X155653533Y-70863557D01*
X155710147Y-70846384D01*
X155823373Y-70812037D01*
X155889557Y-70805519D01*
X155955740Y-70799000D01*
X156044260Y-70799000D01*
X156110443Y-70805519D01*
X156110443Y-70805519D01*
G37*
G36*
X136179294Y-70483633D02*
X136351694Y-70535931D01*
X136351696Y-70535932D01*
X136510583Y-70620859D01*
X136649849Y-70735151D01*
X136764141Y-70874417D01*
X136803056Y-70947222D01*
X136849069Y-71033306D01*
X136901367Y-71205706D01*
X136919025Y-71385000D01*
X136901367Y-71564294D01*
X136860200Y-71700000D01*
X136849068Y-71736696D01*
X136764141Y-71895583D01*
X136649849Y-72034849D01*
X136510583Y-72149141D01*
X136351696Y-72234068D01*
X136351694Y-72234069D01*
X136179294Y-72286367D01*
X136044931Y-72299600D01*
X135955069Y-72299600D01*
X135820706Y-72286367D01*
X135648306Y-72234069D01*
X135648304Y-72234068D01*
X135489417Y-72149141D01*
X135350151Y-72034849D01*
X135235859Y-71895583D01*
X135150932Y-71736696D01*
X135139800Y-71700000D01*
X135098633Y-71564294D01*
X135080975Y-71385000D01*
X135098633Y-71205706D01*
X135150931Y-71033306D01*
X135196944Y-70947222D01*
X135235859Y-70874417D01*
X135350151Y-70735151D01*
X135489417Y-70620859D01*
X135648304Y-70535932D01*
X135648306Y-70535931D01*
X135820706Y-70483633D01*
X135955069Y-70470400D01*
X136044931Y-70470400D01*
X136179294Y-70483633D01*
X136179294Y-70483633D01*
G37*
G36*
X133639294Y-70483633D02*
X133811694Y-70535931D01*
X133811696Y-70535932D01*
X133970583Y-70620859D01*
X134109849Y-70735151D01*
X134224141Y-70874417D01*
X134263056Y-70947222D01*
X134309069Y-71033306D01*
X134361367Y-71205706D01*
X134379025Y-71385000D01*
X134361367Y-71564294D01*
X134320200Y-71700000D01*
X134309068Y-71736696D01*
X134224141Y-71895583D01*
X134109849Y-72034849D01*
X133970583Y-72149141D01*
X133811696Y-72234068D01*
X133811694Y-72234069D01*
X133639294Y-72286367D01*
X133504931Y-72299600D01*
X133415069Y-72299600D01*
X133280706Y-72286367D01*
X133108306Y-72234069D01*
X133108304Y-72234068D01*
X132949417Y-72149141D01*
X132810151Y-72034849D01*
X132695859Y-71895583D01*
X132610932Y-71736696D01*
X132599800Y-71700000D01*
X132558633Y-71564294D01*
X132540975Y-71385000D01*
X132558633Y-71205706D01*
X132610931Y-71033306D01*
X132656944Y-70947222D01*
X132695859Y-70874417D01*
X132810151Y-70735151D01*
X132949417Y-70620859D01*
X133108304Y-70535932D01*
X133108306Y-70535931D01*
X133280706Y-70483633D01*
X133415069Y-70470400D01*
X133504931Y-70470400D01*
X133639294Y-70483633D01*
X133639294Y-70483633D01*
G37*
G36*
X156110442Y-68265518D02*
X156176627Y-68272037D01*
X156289853Y-68306384D01*
X156346467Y-68323557D01*
X156485087Y-68397652D01*
X156502991Y-68407222D01*
X156538729Y-68436552D01*
X156640186Y-68519814D01*
X156723448Y-68621271D01*
X156752778Y-68657009D01*
X156752779Y-68657011D01*
X156836443Y-68813533D01*
X156836443Y-68813534D01*
X156887963Y-68983373D01*
X156905359Y-69160000D01*
X156887963Y-69336627D01*
X156882212Y-69355584D01*
X156836443Y-69506467D01*
X156781562Y-69609140D01*
X156752778Y-69662991D01*
X156727274Y-69694068D01*
X156640186Y-69800186D01*
X156538729Y-69883448D01*
X156502991Y-69912778D01*
X156502989Y-69912779D01*
X156346467Y-69996443D01*
X156289853Y-70013616D01*
X156176627Y-70047963D01*
X156110443Y-70054481D01*
X156044260Y-70061000D01*
X155955740Y-70061000D01*
X155889557Y-70054481D01*
X155823373Y-70047963D01*
X155710147Y-70013616D01*
X155653533Y-69996443D01*
X155497011Y-69912779D01*
X155497009Y-69912778D01*
X155461271Y-69883448D01*
X155359814Y-69800186D01*
X155272726Y-69694068D01*
X155247222Y-69662991D01*
X155218438Y-69609140D01*
X155163557Y-69506467D01*
X155117788Y-69355584D01*
X155112037Y-69336627D01*
X155094641Y-69160000D01*
X155112037Y-68983373D01*
X155163557Y-68813534D01*
X155163557Y-68813533D01*
X155247221Y-68657011D01*
X155247222Y-68657009D01*
X155276552Y-68621271D01*
X155359814Y-68519814D01*
X155461271Y-68436552D01*
X155497009Y-68407222D01*
X155514913Y-68397652D01*
X155653533Y-68323557D01*
X155710147Y-68306384D01*
X155823373Y-68272037D01*
X155889558Y-68265518D01*
X155955740Y-68259000D01*
X156044260Y-68259000D01*
X156110442Y-68265518D01*
X156110442Y-68265518D01*
G37*
G36*
X133639294Y-67943633D02*
X133811694Y-67995931D01*
X133811696Y-67995932D01*
X133970583Y-68080859D01*
X134109849Y-68195151D01*
X134224141Y-68334417D01*
X134263056Y-68407222D01*
X134309069Y-68493306D01*
X134361367Y-68665706D01*
X134379025Y-68845000D01*
X134361367Y-69024294D01*
X134320200Y-69160000D01*
X134309068Y-69196696D01*
X134224141Y-69355583D01*
X134109849Y-69494849D01*
X133970583Y-69609141D01*
X133811696Y-69694068D01*
X133811694Y-69694069D01*
X133639294Y-69746367D01*
X133504931Y-69759600D01*
X133415069Y-69759600D01*
X133280706Y-69746367D01*
X133108306Y-69694069D01*
X133108304Y-69694068D01*
X132949417Y-69609141D01*
X132810151Y-69494849D01*
X132695859Y-69355583D01*
X132610932Y-69196696D01*
X132599800Y-69160000D01*
X132558633Y-69024294D01*
X132540975Y-68845000D01*
X132558633Y-68665706D01*
X132610931Y-68493306D01*
X132656944Y-68407222D01*
X132695859Y-68334417D01*
X132810151Y-68195151D01*
X132949417Y-68080859D01*
X133108304Y-67995932D01*
X133108306Y-67995931D01*
X133280706Y-67943633D01*
X133415069Y-67930400D01*
X133504931Y-67930400D01*
X133639294Y-67943633D01*
X133639294Y-67943633D01*
G37*
G36*
X136179294Y-67943633D02*
X136351694Y-67995931D01*
X136351696Y-67995932D01*
X136510583Y-68080859D01*
X136649849Y-68195151D01*
X136764141Y-68334417D01*
X136803056Y-68407222D01*
X136849069Y-68493306D01*
X136901367Y-68665706D01*
X136919025Y-68845000D01*
X136901367Y-69024294D01*
X136860200Y-69160000D01*
X136849068Y-69196696D01*
X136764141Y-69355583D01*
X136649849Y-69494849D01*
X136510583Y-69609141D01*
X136351696Y-69694068D01*
X136351694Y-69694069D01*
X136179294Y-69746367D01*
X136044931Y-69759600D01*
X135955069Y-69759600D01*
X135820706Y-69746367D01*
X135648306Y-69694069D01*
X135648304Y-69694068D01*
X135489417Y-69609141D01*
X135350151Y-69494849D01*
X135235859Y-69355583D01*
X135150932Y-69196696D01*
X135139800Y-69160000D01*
X135098633Y-69024294D01*
X135080975Y-68845000D01*
X135098633Y-68665706D01*
X135150931Y-68493306D01*
X135196944Y-68407222D01*
X135235859Y-68334417D01*
X135350151Y-68195151D01*
X135489417Y-68080859D01*
X135648304Y-67995932D01*
X135648306Y-67995931D01*
X135820706Y-67943633D01*
X135955069Y-67930400D01*
X136044931Y-67930400D01*
X136179294Y-67943633D01*
X136179294Y-67943633D01*
G37*
G36*
X156110442Y-65725518D02*
X156176627Y-65732037D01*
X156289853Y-65766384D01*
X156346467Y-65783557D01*
X156485087Y-65857652D01*
X156502991Y-65867222D01*
X156538729Y-65896552D01*
X156640186Y-65979814D01*
X156723448Y-66081271D01*
X156752778Y-66117009D01*
X156752779Y-66117011D01*
X156836443Y-66273533D01*
X156836443Y-66273534D01*
X156887963Y-66443373D01*
X156905359Y-66620000D01*
X156887963Y-66796627D01*
X156882212Y-66815584D01*
X156836443Y-66966467D01*
X156781562Y-67069140D01*
X156752778Y-67122991D01*
X156727274Y-67154068D01*
X156640186Y-67260186D01*
X156538729Y-67343448D01*
X156502991Y-67372778D01*
X156502989Y-67372779D01*
X156346467Y-67456443D01*
X156289853Y-67473616D01*
X156176627Y-67507963D01*
X156110442Y-67514482D01*
X156044260Y-67521000D01*
X155955740Y-67521000D01*
X155889558Y-67514482D01*
X155823373Y-67507963D01*
X155710147Y-67473616D01*
X155653533Y-67456443D01*
X155497011Y-67372779D01*
X155497009Y-67372778D01*
X155461271Y-67343448D01*
X155359814Y-67260186D01*
X155272726Y-67154068D01*
X155247222Y-67122991D01*
X155218438Y-67069140D01*
X155163557Y-66966467D01*
X155117788Y-66815584D01*
X155112037Y-66796627D01*
X155094641Y-66620000D01*
X155112037Y-66443373D01*
X155163557Y-66273534D01*
X155163557Y-66273533D01*
X155247221Y-66117011D01*
X155247222Y-66117009D01*
X155276552Y-66081271D01*
X155359814Y-65979814D01*
X155461271Y-65896552D01*
X155497009Y-65867222D01*
X155514913Y-65857652D01*
X155653533Y-65783557D01*
X155710147Y-65766384D01*
X155823373Y-65732037D01*
X155889558Y-65725518D01*
X155955740Y-65719000D01*
X156044260Y-65719000D01*
X156110442Y-65725518D01*
X156110442Y-65725518D01*
G37*
G36*
X133639294Y-65403633D02*
X133811694Y-65455931D01*
X133811696Y-65455932D01*
X133970583Y-65540859D01*
X134109849Y-65655151D01*
X134224141Y-65794417D01*
X134263056Y-65867222D01*
X134309069Y-65953306D01*
X134361367Y-66125706D01*
X134379025Y-66305000D01*
X134361367Y-66484294D01*
X134320200Y-66620000D01*
X134309068Y-66656696D01*
X134224141Y-66815583D01*
X134109849Y-66954849D01*
X133970583Y-67069141D01*
X133811696Y-67154068D01*
X133811694Y-67154069D01*
X133639294Y-67206367D01*
X133504931Y-67219600D01*
X133415069Y-67219600D01*
X133280706Y-67206367D01*
X133108306Y-67154069D01*
X133108304Y-67154068D01*
X132949417Y-67069141D01*
X132810151Y-66954849D01*
X132695859Y-66815583D01*
X132610932Y-66656696D01*
X132599800Y-66620000D01*
X132558633Y-66484294D01*
X132540975Y-66305000D01*
X132558633Y-66125706D01*
X132610931Y-65953306D01*
X132656944Y-65867222D01*
X132695859Y-65794417D01*
X132810151Y-65655151D01*
X132949417Y-65540859D01*
X133108304Y-65455932D01*
X133108306Y-65455931D01*
X133280706Y-65403633D01*
X133415069Y-65390400D01*
X133504931Y-65390400D01*
X133639294Y-65403633D01*
X133639294Y-65403633D01*
G37*
G36*
X136179294Y-65403633D02*
X136351694Y-65455931D01*
X136351696Y-65455932D01*
X136510583Y-65540859D01*
X136649849Y-65655151D01*
X136764141Y-65794417D01*
X136803056Y-65867222D01*
X136849069Y-65953306D01*
X136901367Y-66125706D01*
X136919025Y-66305000D01*
X136901367Y-66484294D01*
X136860200Y-66620000D01*
X136849068Y-66656696D01*
X136764141Y-66815583D01*
X136649849Y-66954849D01*
X136510583Y-67069141D01*
X136351696Y-67154068D01*
X136351694Y-67154069D01*
X136179294Y-67206367D01*
X136044931Y-67219600D01*
X135955069Y-67219600D01*
X135820706Y-67206367D01*
X135648306Y-67154069D01*
X135648304Y-67154068D01*
X135489417Y-67069141D01*
X135350151Y-66954849D01*
X135235859Y-66815583D01*
X135150932Y-66656696D01*
X135139800Y-66620000D01*
X135098633Y-66484294D01*
X135080975Y-66305000D01*
X135098633Y-66125706D01*
X135150931Y-65953306D01*
X135196944Y-65867222D01*
X135235859Y-65794417D01*
X135350151Y-65655151D01*
X135489417Y-65540859D01*
X135648304Y-65455932D01*
X135648306Y-65455931D01*
X135820706Y-65403633D01*
X135955069Y-65390400D01*
X136044931Y-65390400D01*
X136179294Y-65403633D01*
X136179294Y-65403633D01*
G37*
G36*
X156110443Y-63185519D02*
X156176627Y-63192037D01*
X156289853Y-63226384D01*
X156346467Y-63243557D01*
X156485087Y-63317652D01*
X156502991Y-63327222D01*
X156538729Y-63356552D01*
X156640186Y-63439814D01*
X156723448Y-63541271D01*
X156752778Y-63577009D01*
X156752779Y-63577011D01*
X156836443Y-63733533D01*
X156836443Y-63733534D01*
X156887963Y-63903373D01*
X156905359Y-64080000D01*
X156887963Y-64256627D01*
X156882212Y-64275584D01*
X156836443Y-64426467D01*
X156781562Y-64529140D01*
X156752778Y-64582991D01*
X156727274Y-64614068D01*
X156640186Y-64720186D01*
X156538729Y-64803448D01*
X156502991Y-64832778D01*
X156502989Y-64832779D01*
X156346467Y-64916443D01*
X156289853Y-64933616D01*
X156176627Y-64967963D01*
X156110443Y-64974481D01*
X156044260Y-64981000D01*
X155955740Y-64981000D01*
X155889557Y-64974481D01*
X155823373Y-64967963D01*
X155710147Y-64933616D01*
X155653533Y-64916443D01*
X155497011Y-64832779D01*
X155497009Y-64832778D01*
X155461271Y-64803448D01*
X155359814Y-64720186D01*
X155272726Y-64614068D01*
X155247222Y-64582991D01*
X155218438Y-64529140D01*
X155163557Y-64426467D01*
X155117788Y-64275584D01*
X155112037Y-64256627D01*
X155094641Y-64080000D01*
X155112037Y-63903373D01*
X155163557Y-63733534D01*
X155163557Y-63733533D01*
X155247221Y-63577011D01*
X155247222Y-63577009D01*
X155276552Y-63541271D01*
X155359814Y-63439814D01*
X155461271Y-63356552D01*
X155497009Y-63327222D01*
X155514913Y-63317652D01*
X155653533Y-63243557D01*
X155710147Y-63226384D01*
X155823373Y-63192037D01*
X155889557Y-63185519D01*
X155955740Y-63179000D01*
X156044260Y-63179000D01*
X156110443Y-63185519D01*
X156110443Y-63185519D01*
G37*
G36*
X136179294Y-62863633D02*
X136351694Y-62915931D01*
X136351696Y-62915932D01*
X136510583Y-63000859D01*
X136649849Y-63115151D01*
X136764141Y-63254417D01*
X136803056Y-63327222D01*
X136849069Y-63413306D01*
X136901367Y-63585706D01*
X136919025Y-63765000D01*
X136901367Y-63944294D01*
X136860200Y-64080000D01*
X136849068Y-64116696D01*
X136764141Y-64275583D01*
X136649849Y-64414849D01*
X136510583Y-64529141D01*
X136351696Y-64614068D01*
X136351694Y-64614069D01*
X136179294Y-64666367D01*
X136044931Y-64679600D01*
X135955069Y-64679600D01*
X135820706Y-64666367D01*
X135648306Y-64614069D01*
X135648304Y-64614068D01*
X135489417Y-64529141D01*
X135350151Y-64414849D01*
X135235859Y-64275583D01*
X135150932Y-64116696D01*
X135139800Y-64080000D01*
X135098633Y-63944294D01*
X135080975Y-63765000D01*
X135098633Y-63585706D01*
X135150931Y-63413306D01*
X135196944Y-63327222D01*
X135235859Y-63254417D01*
X135350151Y-63115151D01*
X135489417Y-63000859D01*
X135648304Y-62915932D01*
X135648306Y-62915931D01*
X135820706Y-62863633D01*
X135955069Y-62850400D01*
X136044931Y-62850400D01*
X136179294Y-62863633D01*
X136179294Y-62863633D01*
G37*
G36*
X133639294Y-62863633D02*
X133811694Y-62915931D01*
X133811696Y-62915932D01*
X133970583Y-63000859D01*
X134109849Y-63115151D01*
X134224141Y-63254417D01*
X134263056Y-63327222D01*
X134309069Y-63413306D01*
X134361367Y-63585706D01*
X134379025Y-63765000D01*
X134361367Y-63944294D01*
X134320200Y-64080000D01*
X134309068Y-64116696D01*
X134224141Y-64275583D01*
X134109849Y-64414849D01*
X133970583Y-64529141D01*
X133811696Y-64614068D01*
X133811694Y-64614069D01*
X133639294Y-64666367D01*
X133504931Y-64679600D01*
X133415069Y-64679600D01*
X133280706Y-64666367D01*
X133108306Y-64614069D01*
X133108304Y-64614068D01*
X132949417Y-64529141D01*
X132810151Y-64414849D01*
X132695859Y-64275583D01*
X132610932Y-64116696D01*
X132599800Y-64080000D01*
X132558633Y-63944294D01*
X132540975Y-63765000D01*
X132558633Y-63585706D01*
X132610931Y-63413306D01*
X132656944Y-63327222D01*
X132695859Y-63254417D01*
X132810151Y-63115151D01*
X132949417Y-63000859D01*
X133108304Y-62915932D01*
X133108306Y-62915931D01*
X133280706Y-62863633D01*
X133415069Y-62850400D01*
X133504931Y-62850400D01*
X133639294Y-62863633D01*
X133639294Y-62863633D01*
G37*
G36*
X156110443Y-60645519D02*
X156176627Y-60652037D01*
X156289853Y-60686384D01*
X156346467Y-60703557D01*
X156485087Y-60777652D01*
X156502991Y-60787222D01*
X156538729Y-60816552D01*
X156640186Y-60899814D01*
X156723448Y-61001271D01*
X156752778Y-61037009D01*
X156752779Y-61037011D01*
X156836443Y-61193533D01*
X156836443Y-61193534D01*
X156887963Y-61363373D01*
X156905359Y-61540000D01*
X156887963Y-61716627D01*
X156882212Y-61735584D01*
X156836443Y-61886467D01*
X156781562Y-61989140D01*
X156752778Y-62042991D01*
X156727274Y-62074068D01*
X156640186Y-62180186D01*
X156538729Y-62263448D01*
X156502991Y-62292778D01*
X156502989Y-62292779D01*
X156346467Y-62376443D01*
X156289853Y-62393616D01*
X156176627Y-62427963D01*
X156110443Y-62434481D01*
X156044260Y-62441000D01*
X155955740Y-62441000D01*
X155889557Y-62434481D01*
X155823373Y-62427963D01*
X155710147Y-62393616D01*
X155653533Y-62376443D01*
X155497011Y-62292779D01*
X155497009Y-62292778D01*
X155461271Y-62263448D01*
X155359814Y-62180186D01*
X155272726Y-62074068D01*
X155247222Y-62042991D01*
X155218438Y-61989140D01*
X155163557Y-61886467D01*
X155117788Y-61735584D01*
X155112037Y-61716627D01*
X155094641Y-61540000D01*
X155112037Y-61363373D01*
X155163557Y-61193534D01*
X155163557Y-61193533D01*
X155247221Y-61037011D01*
X155247222Y-61037009D01*
X155276552Y-61001271D01*
X155359814Y-60899814D01*
X155461271Y-60816552D01*
X155497009Y-60787222D01*
X155514913Y-60777652D01*
X155653533Y-60703557D01*
X155710147Y-60686384D01*
X155823373Y-60652037D01*
X155889557Y-60645519D01*
X155955740Y-60639000D01*
X156044260Y-60639000D01*
X156110443Y-60645519D01*
X156110443Y-60645519D01*
G37*
G36*
X136179294Y-60323633D02*
X136351694Y-60375931D01*
X136351696Y-60375932D01*
X136510583Y-60460859D01*
X136649849Y-60575151D01*
X136764141Y-60714417D01*
X136803056Y-60787222D01*
X136849069Y-60873306D01*
X136901367Y-61045706D01*
X136919025Y-61225000D01*
X136901367Y-61404294D01*
X136860200Y-61540000D01*
X136849068Y-61576696D01*
X136764141Y-61735583D01*
X136649849Y-61874849D01*
X136510583Y-61989141D01*
X136351696Y-62074068D01*
X136351694Y-62074069D01*
X136179294Y-62126367D01*
X136044931Y-62139600D01*
X135955069Y-62139600D01*
X135820706Y-62126367D01*
X135648306Y-62074069D01*
X135648304Y-62074068D01*
X135489417Y-61989141D01*
X135350151Y-61874849D01*
X135235859Y-61735583D01*
X135150932Y-61576696D01*
X135139800Y-61540000D01*
X135098633Y-61404294D01*
X135080975Y-61225000D01*
X135098633Y-61045706D01*
X135150931Y-60873306D01*
X135196944Y-60787222D01*
X135235859Y-60714417D01*
X135350151Y-60575151D01*
X135489417Y-60460859D01*
X135648304Y-60375932D01*
X135648306Y-60375931D01*
X135820706Y-60323633D01*
X135955069Y-60310400D01*
X136044931Y-60310400D01*
X136179294Y-60323633D01*
X136179294Y-60323633D01*
G37*
G36*
X133639294Y-60323633D02*
X133811694Y-60375931D01*
X133811696Y-60375932D01*
X133970583Y-60460859D01*
X134109849Y-60575151D01*
X134224141Y-60714417D01*
X134263056Y-60787222D01*
X134309069Y-60873306D01*
X134361367Y-61045706D01*
X134379025Y-61225000D01*
X134361367Y-61404294D01*
X134320200Y-61540000D01*
X134309068Y-61576696D01*
X134224141Y-61735583D01*
X134109849Y-61874849D01*
X133970583Y-61989141D01*
X133811696Y-62074068D01*
X133811694Y-62074069D01*
X133639294Y-62126367D01*
X133504931Y-62139600D01*
X133415069Y-62139600D01*
X133280706Y-62126367D01*
X133108306Y-62074069D01*
X133108304Y-62074068D01*
X132949417Y-61989141D01*
X132810151Y-61874849D01*
X132695859Y-61735583D01*
X132610932Y-61576696D01*
X132599800Y-61540000D01*
X132558633Y-61404294D01*
X132540975Y-61225000D01*
X132558633Y-61045706D01*
X132610931Y-60873306D01*
X132656944Y-60787222D01*
X132695859Y-60714417D01*
X132810151Y-60575151D01*
X132949417Y-60460859D01*
X133108304Y-60375932D01*
X133108306Y-60375931D01*
X133280706Y-60323633D01*
X133415069Y-60310400D01*
X133504931Y-60310400D01*
X133639294Y-60323633D01*
X133639294Y-60323633D01*
G37*
G36*
X156901000Y-59901000D02*
X155099000Y-59901000D01*
X155099000Y-58099000D01*
X156901000Y-58099000D01*
X156901000Y-59901000D01*
X156901000Y-59901000D01*
G37*
G36*
X136179294Y-57783633D02*
X136351694Y-57835931D01*
X136351696Y-57835932D01*
X136510583Y-57920859D01*
X136510585Y-57920860D01*
X136510584Y-57920860D01*
X136649849Y-58035151D01*
X136764140Y-58174416D01*
X136849069Y-58333306D01*
X136901367Y-58505706D01*
X136919025Y-58685000D01*
X136901367Y-58864294D01*
X136849069Y-59036694D01*
X136849068Y-59036696D01*
X136764141Y-59195583D01*
X136649849Y-59334849D01*
X136510583Y-59449141D01*
X136351696Y-59534068D01*
X136351694Y-59534069D01*
X136179294Y-59586367D01*
X136044931Y-59599600D01*
X135955069Y-59599600D01*
X135820706Y-59586367D01*
X135648306Y-59534069D01*
X135648304Y-59534068D01*
X135489417Y-59449141D01*
X135350151Y-59334849D01*
X135235859Y-59195583D01*
X135150932Y-59036696D01*
X135150931Y-59036694D01*
X135098633Y-58864294D01*
X135080975Y-58685000D01*
X135098633Y-58505706D01*
X135150931Y-58333306D01*
X135235860Y-58174416D01*
X135350151Y-58035151D01*
X135489416Y-57920860D01*
X135489415Y-57920860D01*
X135489417Y-57920859D01*
X135648304Y-57835932D01*
X135648306Y-57835931D01*
X135820706Y-57783633D01*
X135955069Y-57770400D01*
X136044931Y-57770400D01*
X136179294Y-57783633D01*
X136179294Y-57783633D01*
G37*
G36*
X133639294Y-57783633D02*
X133811694Y-57835931D01*
X133811696Y-57835932D01*
X133970583Y-57920859D01*
X133970585Y-57920860D01*
X133970584Y-57920860D01*
X134109849Y-58035151D01*
X134224140Y-58174416D01*
X134309069Y-58333306D01*
X134361367Y-58505706D01*
X134379025Y-58685000D01*
X134361367Y-58864294D01*
X134309069Y-59036694D01*
X134309068Y-59036696D01*
X134224141Y-59195583D01*
X134109849Y-59334849D01*
X133970583Y-59449141D01*
X133811696Y-59534068D01*
X133811694Y-59534069D01*
X133639294Y-59586367D01*
X133504931Y-59599600D01*
X133415069Y-59599600D01*
X133280706Y-59586367D01*
X133108306Y-59534069D01*
X133108304Y-59534068D01*
X132949417Y-59449141D01*
X132810151Y-59334849D01*
X132695859Y-59195583D01*
X132610932Y-59036696D01*
X132610931Y-59036694D01*
X132558633Y-58864294D01*
X132540975Y-58685000D01*
X132558633Y-58505706D01*
X132610931Y-58333306D01*
X132695860Y-58174416D01*
X132810151Y-58035151D01*
X132949416Y-57920860D01*
X132949415Y-57920860D01*
X132949417Y-57920859D01*
X133108304Y-57835932D01*
X133108306Y-57835931D01*
X133280706Y-57783633D01*
X133415069Y-57770400D01*
X133504931Y-57770400D01*
X133639294Y-57783633D01*
X133639294Y-57783633D01*
G37*
G36*
X136179294Y-55243633D02*
X136351694Y-55295931D01*
X136351696Y-55295932D01*
X136510583Y-55380859D01*
X136510585Y-55380860D01*
X136510584Y-55380860D01*
X136649849Y-55495151D01*
X136764140Y-55634416D01*
X136849069Y-55793306D01*
X136901367Y-55965706D01*
X136919025Y-56145000D01*
X136901367Y-56324294D01*
X136849069Y-56496694D01*
X136849068Y-56496696D01*
X136764141Y-56655583D01*
X136649849Y-56794849D01*
X136510583Y-56909141D01*
X136351696Y-56994068D01*
X136351694Y-56994069D01*
X136179294Y-57046367D01*
X136044931Y-57059600D01*
X135955069Y-57059600D01*
X135820706Y-57046367D01*
X135648306Y-56994069D01*
X135648304Y-56994068D01*
X135489417Y-56909141D01*
X135350151Y-56794849D01*
X135235859Y-56655583D01*
X135150932Y-56496696D01*
X135150931Y-56496694D01*
X135098633Y-56324294D01*
X135080975Y-56145000D01*
X135098633Y-55965706D01*
X135150931Y-55793306D01*
X135235860Y-55634416D01*
X135350151Y-55495151D01*
X135489416Y-55380860D01*
X135489415Y-55380860D01*
X135489417Y-55380859D01*
X135648304Y-55295932D01*
X135648306Y-55295931D01*
X135820706Y-55243633D01*
X135955069Y-55230400D01*
X136044931Y-55230400D01*
X136179294Y-55243633D01*
X136179294Y-55243633D01*
G37*
G36*
X133639294Y-55243633D02*
X133811694Y-55295931D01*
X133811696Y-55295932D01*
X133970583Y-55380859D01*
X133970585Y-55380860D01*
X133970584Y-55380860D01*
X134109849Y-55495151D01*
X134224140Y-55634416D01*
X134309069Y-55793306D01*
X134361367Y-55965706D01*
X134379025Y-56145000D01*
X134361367Y-56324294D01*
X134309069Y-56496694D01*
X134309068Y-56496696D01*
X134224141Y-56655583D01*
X134109849Y-56794849D01*
X133970583Y-56909141D01*
X133811696Y-56994068D01*
X133811694Y-56994069D01*
X133639294Y-57046367D01*
X133504931Y-57059600D01*
X133415069Y-57059600D01*
X133280706Y-57046367D01*
X133108306Y-56994069D01*
X133108304Y-56994068D01*
X132949417Y-56909141D01*
X132810151Y-56794849D01*
X132695859Y-56655583D01*
X132610932Y-56496696D01*
X132610931Y-56496694D01*
X132558633Y-56324294D01*
X132540975Y-56145000D01*
X132558633Y-55965706D01*
X132610931Y-55793306D01*
X132695860Y-55634416D01*
X132810151Y-55495151D01*
X132949416Y-55380860D01*
X132949415Y-55380860D01*
X132949417Y-55380859D01*
X133108304Y-55295932D01*
X133108306Y-55295931D01*
X133280706Y-55243633D01*
X133415069Y-55230400D01*
X133504931Y-55230400D01*
X133639294Y-55243633D01*
X133639294Y-55243633D01*
G37*
G36*
X136179294Y-52703633D02*
X136351694Y-52755931D01*
X136351696Y-52755932D01*
X136510583Y-52840859D01*
X136510585Y-52840860D01*
X136510584Y-52840860D01*
X136649849Y-52955151D01*
X136764140Y-53094416D01*
X136849069Y-53253306D01*
X136901367Y-53425706D01*
X136919025Y-53605000D01*
X136901367Y-53784294D01*
X136849069Y-53956694D01*
X136849068Y-53956696D01*
X136764141Y-54115583D01*
X136649849Y-54254849D01*
X136510583Y-54369141D01*
X136351696Y-54454068D01*
X136351694Y-54454069D01*
X136179294Y-54506367D01*
X136044931Y-54519600D01*
X135955069Y-54519600D01*
X135820706Y-54506367D01*
X135648306Y-54454069D01*
X135648304Y-54454068D01*
X135489417Y-54369141D01*
X135350151Y-54254849D01*
X135235859Y-54115583D01*
X135150932Y-53956696D01*
X135150931Y-53956694D01*
X135098633Y-53784294D01*
X135080975Y-53605000D01*
X135098633Y-53425706D01*
X135150931Y-53253306D01*
X135235860Y-53094416D01*
X135350151Y-52955151D01*
X135489416Y-52840860D01*
X135489415Y-52840860D01*
X135489417Y-52840859D01*
X135648304Y-52755932D01*
X135648306Y-52755931D01*
X135820706Y-52703633D01*
X135955069Y-52690400D01*
X136044931Y-52690400D01*
X136179294Y-52703633D01*
X136179294Y-52703633D01*
G37*
G36*
X133639294Y-52703633D02*
X133811694Y-52755931D01*
X133811696Y-52755932D01*
X133970583Y-52840859D01*
X133970585Y-52840860D01*
X133970584Y-52840860D01*
X134109849Y-52955151D01*
X134224140Y-53094416D01*
X134309069Y-53253306D01*
X134361367Y-53425706D01*
X134379025Y-53605000D01*
X134361367Y-53784294D01*
X134309069Y-53956694D01*
X134309068Y-53956696D01*
X134224141Y-54115583D01*
X134109849Y-54254849D01*
X133970583Y-54369141D01*
X133811696Y-54454068D01*
X133811694Y-54454069D01*
X133639294Y-54506367D01*
X133504931Y-54519600D01*
X133415069Y-54519600D01*
X133280706Y-54506367D01*
X133108306Y-54454069D01*
X133108304Y-54454068D01*
X132949417Y-54369141D01*
X132810151Y-54254849D01*
X132695859Y-54115583D01*
X132610932Y-53956696D01*
X132610931Y-53956694D01*
X132558633Y-53784294D01*
X132540975Y-53605000D01*
X132558633Y-53425706D01*
X132610931Y-53253306D01*
X132695860Y-53094416D01*
X132810151Y-52955151D01*
X132949416Y-52840860D01*
X132949415Y-52840860D01*
X132949417Y-52840859D01*
X133108304Y-52755932D01*
X133108306Y-52755931D01*
X133280706Y-52703633D01*
X133415069Y-52690400D01*
X133504931Y-52690400D01*
X133639294Y-52703633D01*
X133639294Y-52703633D01*
G37*
G36*
X133639294Y-50163633D02*
X133811694Y-50215931D01*
X133811696Y-50215932D01*
X133970583Y-50300859D01*
X133970585Y-50300860D01*
X133970584Y-50300860D01*
X134109849Y-50415151D01*
X134224140Y-50554416D01*
X134309069Y-50713306D01*
X134361367Y-50885706D01*
X134379025Y-51065000D01*
X134361367Y-51244294D01*
X134309069Y-51416694D01*
X134309068Y-51416696D01*
X134224141Y-51575583D01*
X134109849Y-51714849D01*
X133970583Y-51829141D01*
X133811696Y-51914068D01*
X133811694Y-51914069D01*
X133639294Y-51966367D01*
X133504931Y-51979600D01*
X133415069Y-51979600D01*
X133280706Y-51966367D01*
X133108306Y-51914069D01*
X133108304Y-51914068D01*
X132949417Y-51829141D01*
X132810151Y-51714849D01*
X132695859Y-51575583D01*
X132610932Y-51416696D01*
X132610931Y-51416694D01*
X132558633Y-51244294D01*
X132540975Y-51065000D01*
X132558633Y-50885706D01*
X132610931Y-50713306D01*
X132695860Y-50554416D01*
X132810151Y-50415151D01*
X132949416Y-50300860D01*
X132949415Y-50300860D01*
X132949417Y-50300859D01*
X133108304Y-50215932D01*
X133108306Y-50215931D01*
X133280706Y-50163633D01*
X133415069Y-50150400D01*
X133504931Y-50150400D01*
X133639294Y-50163633D01*
X133639294Y-50163633D01*
G37*
G36*
X136179294Y-50163633D02*
X136351694Y-50215931D01*
X136351696Y-50215932D01*
X136510583Y-50300859D01*
X136510585Y-50300860D01*
X136510584Y-50300860D01*
X136649849Y-50415151D01*
X136764140Y-50554416D01*
X136849069Y-50713306D01*
X136901367Y-50885706D01*
X136919025Y-51065000D01*
X136901367Y-51244294D01*
X136849069Y-51416694D01*
X136849068Y-51416696D01*
X136764141Y-51575583D01*
X136649849Y-51714849D01*
X136510583Y-51829141D01*
X136351696Y-51914068D01*
X136351694Y-51914069D01*
X136179294Y-51966367D01*
X136044931Y-51979600D01*
X135955069Y-51979600D01*
X135820706Y-51966367D01*
X135648306Y-51914069D01*
X135648304Y-51914068D01*
X135489417Y-51829141D01*
X135350151Y-51714849D01*
X135235859Y-51575583D01*
X135150932Y-51416696D01*
X135150931Y-51416694D01*
X135098633Y-51244294D01*
X135080975Y-51065000D01*
X135098633Y-50885706D01*
X135150931Y-50713306D01*
X135235860Y-50554416D01*
X135350151Y-50415151D01*
X135489416Y-50300860D01*
X135489415Y-50300860D01*
X135489417Y-50300859D01*
X135648304Y-50215932D01*
X135648306Y-50215931D01*
X135820706Y-50163633D01*
X135955069Y-50150400D01*
X136044931Y-50150400D01*
X136179294Y-50163633D01*
X136179294Y-50163633D01*
G37*
G36*
X133639294Y-47623633D02*
X133811694Y-47675931D01*
X133811696Y-47675932D01*
X133970583Y-47760859D01*
X133970585Y-47760860D01*
X133970584Y-47760860D01*
X134109849Y-47875151D01*
X134224140Y-48014416D01*
X134309069Y-48173306D01*
X134361367Y-48345706D01*
X134379025Y-48525000D01*
X134361367Y-48704294D01*
X134309069Y-48876694D01*
X134309068Y-48876696D01*
X134224141Y-49035583D01*
X134109849Y-49174849D01*
X133970583Y-49289141D01*
X133811696Y-49374068D01*
X133811694Y-49374069D01*
X133639294Y-49426367D01*
X133504931Y-49439600D01*
X133415069Y-49439600D01*
X133280706Y-49426367D01*
X133108306Y-49374069D01*
X133108304Y-49374068D01*
X132949417Y-49289141D01*
X132810151Y-49174849D01*
X132695859Y-49035583D01*
X132610932Y-48876696D01*
X132610931Y-48876694D01*
X132558633Y-48704294D01*
X132540975Y-48525000D01*
X132558633Y-48345706D01*
X132610931Y-48173306D01*
X132695860Y-48014416D01*
X132810151Y-47875151D01*
X132949416Y-47760860D01*
X132949415Y-47760860D01*
X132949417Y-47760859D01*
X133108304Y-47675932D01*
X133108306Y-47675931D01*
X133280706Y-47623633D01*
X133415069Y-47610400D01*
X133504931Y-47610400D01*
X133639294Y-47623633D01*
X133639294Y-47623633D01*
G37*
G36*
X136179294Y-47623633D02*
X136351694Y-47675931D01*
X136351696Y-47675932D01*
X136510583Y-47760859D01*
X136510585Y-47760860D01*
X136510584Y-47760860D01*
X136649849Y-47875151D01*
X136764140Y-48014416D01*
X136849069Y-48173306D01*
X136901367Y-48345706D01*
X136919025Y-48525000D01*
X136901367Y-48704294D01*
X136849069Y-48876694D01*
X136849068Y-48876696D01*
X136764141Y-49035583D01*
X136649849Y-49174849D01*
X136510583Y-49289141D01*
X136351696Y-49374068D01*
X136351694Y-49374069D01*
X136179294Y-49426367D01*
X136044931Y-49439600D01*
X135955069Y-49439600D01*
X135820706Y-49426367D01*
X135648306Y-49374069D01*
X135648304Y-49374068D01*
X135489417Y-49289141D01*
X135350151Y-49174849D01*
X135235859Y-49035583D01*
X135150932Y-48876696D01*
X135150931Y-48876694D01*
X135098633Y-48704294D01*
X135080975Y-48525000D01*
X135098633Y-48345706D01*
X135150931Y-48173306D01*
X135235860Y-48014416D01*
X135350151Y-47875151D01*
X135489416Y-47760860D01*
X135489415Y-47760860D01*
X135489417Y-47760859D01*
X135648304Y-47675932D01*
X135648306Y-47675931D01*
X135820706Y-47623633D01*
X135955069Y-47610400D01*
X136044931Y-47610400D01*
X136179294Y-47623633D01*
X136179294Y-47623633D01*
G37*
G36*
X136179294Y-45083633D02*
X136351694Y-45135931D01*
X136351696Y-45135932D01*
X136510583Y-45220859D01*
X136510585Y-45220860D01*
X136510584Y-45220860D01*
X136649849Y-45335151D01*
X136764140Y-45474416D01*
X136849069Y-45633306D01*
X136901367Y-45805706D01*
X136919025Y-45985000D01*
X136901367Y-46164294D01*
X136849069Y-46336694D01*
X136849068Y-46336696D01*
X136764141Y-46495583D01*
X136649849Y-46634849D01*
X136510583Y-46749141D01*
X136351696Y-46834068D01*
X136351694Y-46834069D01*
X136179294Y-46886367D01*
X136044931Y-46899600D01*
X135955069Y-46899600D01*
X135820706Y-46886367D01*
X135648306Y-46834069D01*
X135648304Y-46834068D01*
X135489417Y-46749141D01*
X135350151Y-46634849D01*
X135235859Y-46495583D01*
X135150932Y-46336696D01*
X135150931Y-46336694D01*
X135098633Y-46164294D01*
X135080975Y-45985000D01*
X135098633Y-45805706D01*
X135150931Y-45633306D01*
X135235860Y-45474416D01*
X135350151Y-45335151D01*
X135489416Y-45220860D01*
X135489415Y-45220860D01*
X135489417Y-45220859D01*
X135648304Y-45135932D01*
X135648306Y-45135931D01*
X135820706Y-45083633D01*
X135955069Y-45070400D01*
X136044931Y-45070400D01*
X136179294Y-45083633D01*
X136179294Y-45083633D01*
G37*
G36*
X133639294Y-45083633D02*
X133811694Y-45135931D01*
X133811696Y-45135932D01*
X133970583Y-45220859D01*
X133970585Y-45220860D01*
X133970584Y-45220860D01*
X134109849Y-45335151D01*
X134224140Y-45474416D01*
X134309069Y-45633306D01*
X134361367Y-45805706D01*
X134379025Y-45985000D01*
X134361367Y-46164294D01*
X134309069Y-46336694D01*
X134309068Y-46336696D01*
X134224141Y-46495583D01*
X134109849Y-46634849D01*
X133970583Y-46749141D01*
X133811696Y-46834068D01*
X133811694Y-46834069D01*
X133639294Y-46886367D01*
X133504931Y-46899600D01*
X133415069Y-46899600D01*
X133280706Y-46886367D01*
X133108306Y-46834069D01*
X133108304Y-46834068D01*
X132949417Y-46749141D01*
X132810151Y-46634849D01*
X132695859Y-46495583D01*
X132610932Y-46336696D01*
X132610931Y-46336694D01*
X132558633Y-46164294D01*
X132540975Y-45985000D01*
X132558633Y-45805706D01*
X132610931Y-45633306D01*
X132695860Y-45474416D01*
X132810151Y-45335151D01*
X132949416Y-45220860D01*
X132949415Y-45220860D01*
X132949417Y-45220859D01*
X133108304Y-45135932D01*
X133108306Y-45135931D01*
X133280706Y-45083633D01*
X133415069Y-45070400D01*
X133504931Y-45070400D01*
X133639294Y-45083633D01*
X133639294Y-45083633D01*
G37*
G36*
X133639294Y-42543633D02*
X133811694Y-42595931D01*
X133811696Y-42595932D01*
X133970583Y-42680859D01*
X133970585Y-42680860D01*
X133970584Y-42680860D01*
X134109849Y-42795151D01*
X134224140Y-42934416D01*
X134309069Y-43093306D01*
X134361367Y-43265706D01*
X134379025Y-43445000D01*
X134361367Y-43624294D01*
X134309069Y-43796694D01*
X134309068Y-43796696D01*
X134224141Y-43955583D01*
X134109849Y-44094849D01*
X133970583Y-44209141D01*
X133811696Y-44294068D01*
X133811694Y-44294069D01*
X133639294Y-44346367D01*
X133504931Y-44359600D01*
X133415069Y-44359600D01*
X133280706Y-44346367D01*
X133108306Y-44294069D01*
X133108304Y-44294068D01*
X132949417Y-44209141D01*
X132810151Y-44094849D01*
X132695859Y-43955583D01*
X132610932Y-43796696D01*
X132610931Y-43796694D01*
X132558633Y-43624294D01*
X132540975Y-43445000D01*
X132558633Y-43265706D01*
X132610931Y-43093306D01*
X132695860Y-42934416D01*
X132810151Y-42795151D01*
X132949416Y-42680860D01*
X132949415Y-42680860D01*
X132949417Y-42680859D01*
X133108304Y-42595932D01*
X133108306Y-42595931D01*
X133280706Y-42543633D01*
X133415069Y-42530400D01*
X133504931Y-42530400D01*
X133639294Y-42543633D01*
X133639294Y-42543633D01*
G37*
G36*
X136179294Y-42543633D02*
X136351694Y-42595931D01*
X136351696Y-42595932D01*
X136510583Y-42680859D01*
X136510585Y-42680860D01*
X136510584Y-42680860D01*
X136649849Y-42795151D01*
X136764140Y-42934416D01*
X136849069Y-43093306D01*
X136901367Y-43265706D01*
X136919025Y-43445000D01*
X136901367Y-43624294D01*
X136849069Y-43796694D01*
X136849068Y-43796696D01*
X136764141Y-43955583D01*
X136649849Y-44094849D01*
X136510583Y-44209141D01*
X136351696Y-44294068D01*
X136351694Y-44294069D01*
X136179294Y-44346367D01*
X136044931Y-44359600D01*
X135955069Y-44359600D01*
X135820706Y-44346367D01*
X135648306Y-44294069D01*
X135648304Y-44294068D01*
X135489417Y-44209141D01*
X135350151Y-44094849D01*
X135235859Y-43955583D01*
X135150932Y-43796696D01*
X135150931Y-43796694D01*
X135098633Y-43624294D01*
X135080975Y-43445000D01*
X135098633Y-43265706D01*
X135150931Y-43093306D01*
X135235860Y-42934416D01*
X135350151Y-42795151D01*
X135489416Y-42680860D01*
X135489415Y-42680860D01*
X135489417Y-42680859D01*
X135648304Y-42595932D01*
X135648306Y-42595931D01*
X135820706Y-42543633D01*
X135955069Y-42530400D01*
X136044931Y-42530400D01*
X136179294Y-42543633D01*
X136179294Y-42543633D01*
G37*
G36*
X133639294Y-40003633D02*
X133811694Y-40055931D01*
X133811696Y-40055932D01*
X133970583Y-40140859D01*
X133970585Y-40140860D01*
X133970584Y-40140860D01*
X134109849Y-40255151D01*
X134224140Y-40394416D01*
X134309069Y-40553306D01*
X134361367Y-40725706D01*
X134379025Y-40905000D01*
X134361367Y-41084294D01*
X134309069Y-41256694D01*
X134309068Y-41256696D01*
X134224141Y-41415583D01*
X134109849Y-41554849D01*
X133970583Y-41669141D01*
X133811696Y-41754068D01*
X133811694Y-41754069D01*
X133639294Y-41806367D01*
X133504931Y-41819600D01*
X133415069Y-41819600D01*
X133280706Y-41806367D01*
X133108306Y-41754069D01*
X133108304Y-41754068D01*
X132949417Y-41669141D01*
X132810151Y-41554849D01*
X132695859Y-41415583D01*
X132610932Y-41256696D01*
X132610931Y-41256694D01*
X132558633Y-41084294D01*
X132540975Y-40905000D01*
X132558633Y-40725706D01*
X132610931Y-40553306D01*
X132695860Y-40394416D01*
X132810151Y-40255151D01*
X132949416Y-40140860D01*
X132949415Y-40140860D01*
X132949417Y-40140859D01*
X133108304Y-40055932D01*
X133108306Y-40055931D01*
X133280706Y-40003633D01*
X133415069Y-39990400D01*
X133504931Y-39990400D01*
X133639294Y-40003633D01*
X133639294Y-40003633D01*
G37*
G36*
X136179294Y-40003633D02*
X136351694Y-40055931D01*
X136351696Y-40055932D01*
X136510583Y-40140859D01*
X136510585Y-40140860D01*
X136510584Y-40140860D01*
X136649849Y-40255151D01*
X136764140Y-40394416D01*
X136849069Y-40553306D01*
X136901367Y-40725706D01*
X136919025Y-40905000D01*
X136901367Y-41084294D01*
X136849069Y-41256694D01*
X136849068Y-41256696D01*
X136764141Y-41415583D01*
X136649849Y-41554849D01*
X136510583Y-41669141D01*
X136351696Y-41754068D01*
X136351694Y-41754069D01*
X136179294Y-41806367D01*
X136044931Y-41819600D01*
X135955069Y-41819600D01*
X135820706Y-41806367D01*
X135648306Y-41754069D01*
X135648304Y-41754068D01*
X135489417Y-41669141D01*
X135350151Y-41554849D01*
X135235859Y-41415583D01*
X135150932Y-41256696D01*
X135150931Y-41256694D01*
X135098633Y-41084294D01*
X135080975Y-40905000D01*
X135098633Y-40725706D01*
X135150931Y-40553306D01*
X135235860Y-40394416D01*
X135350151Y-40255151D01*
X135489416Y-40140860D01*
X135489415Y-40140860D01*
X135489417Y-40140859D01*
X135648304Y-40055932D01*
X135648306Y-40055931D01*
X135820706Y-40003633D01*
X135955069Y-39990400D01*
X136044931Y-39990400D01*
X136179294Y-40003633D01*
X136179294Y-40003633D01*
G37*
G36*
X136179294Y-37463633D02*
X136351694Y-37515931D01*
X136351696Y-37515932D01*
X136510583Y-37600859D01*
X136510585Y-37600860D01*
X136510584Y-37600860D01*
X136649849Y-37715151D01*
X136764140Y-37854416D01*
X136849069Y-38013306D01*
X136901367Y-38185706D01*
X136919025Y-38365000D01*
X136901367Y-38544294D01*
X136849069Y-38716694D01*
X136849068Y-38716696D01*
X136764141Y-38875583D01*
X136649849Y-39014849D01*
X136510583Y-39129141D01*
X136351696Y-39214068D01*
X136351694Y-39214069D01*
X136179294Y-39266367D01*
X136044931Y-39279600D01*
X135955069Y-39279600D01*
X135820706Y-39266367D01*
X135648306Y-39214069D01*
X135648304Y-39214068D01*
X135489417Y-39129141D01*
X135350151Y-39014849D01*
X135235859Y-38875583D01*
X135150932Y-38716696D01*
X135150931Y-38716694D01*
X135098633Y-38544294D01*
X135080975Y-38365000D01*
X135098633Y-38185706D01*
X135150931Y-38013306D01*
X135235860Y-37854416D01*
X135350151Y-37715151D01*
X135489416Y-37600860D01*
X135489415Y-37600860D01*
X135489417Y-37600859D01*
X135648304Y-37515932D01*
X135648306Y-37515931D01*
X135820706Y-37463633D01*
X135955069Y-37450400D01*
X136044931Y-37450400D01*
X136179294Y-37463633D01*
X136179294Y-37463633D01*
G37*
G36*
X133639294Y-37463633D02*
X133811694Y-37515931D01*
X133811696Y-37515932D01*
X133970583Y-37600859D01*
X133970585Y-37600860D01*
X133970584Y-37600860D01*
X134109849Y-37715151D01*
X134224140Y-37854416D01*
X134309069Y-38013306D01*
X134361367Y-38185706D01*
X134379025Y-38365000D01*
X134361367Y-38544294D01*
X134309069Y-38716694D01*
X134309068Y-38716696D01*
X134224141Y-38875583D01*
X134109849Y-39014849D01*
X133970583Y-39129141D01*
X133811696Y-39214068D01*
X133811694Y-39214069D01*
X133639294Y-39266367D01*
X133504931Y-39279600D01*
X133415069Y-39279600D01*
X133280706Y-39266367D01*
X133108306Y-39214069D01*
X133108304Y-39214068D01*
X132949417Y-39129141D01*
X132810151Y-39014849D01*
X132695859Y-38875583D01*
X132610932Y-38716696D01*
X132610931Y-38716694D01*
X132558633Y-38544294D01*
X132540975Y-38365000D01*
X132558633Y-38185706D01*
X132610931Y-38013306D01*
X132695860Y-37854416D01*
X132810151Y-37715151D01*
X132949416Y-37600860D01*
X132949415Y-37600860D01*
X132949417Y-37600859D01*
X133108304Y-37515932D01*
X133108306Y-37515931D01*
X133280706Y-37463633D01*
X133415069Y-37450400D01*
X133504931Y-37450400D01*
X133639294Y-37463633D01*
X133639294Y-37463633D01*
G37*
M02*
